G04 #@! TF.GenerationSoftware,KiCad,Pcbnew,(5.0.0)*
G04 #@! TF.CreationDate,2021-03-23T01:42:42-07:00*
G04 #@! TF.ProjectId,TheVolumeMixerV2,546865566F6C756D654D697865725632,rev?*
G04 #@! TF.SameCoordinates,Original*
G04 #@! TF.FileFunction,Soldermask,Top*
G04 #@! TF.FilePolarity,Negative*
%FSLAX46Y46*%
G04 Gerber Fmt 4.6, Leading zero omitted, Abs format (unit mm)*
G04 Created by KiCad (PCBNEW (5.0.0)) date 03/23/21 01:42:42*
%MOMM*%
%LPD*%
G01*
G04 APERTURE LIST*
%ADD10C,0.152400*%
%ADD11R,0.680000X1.250000*%
%ADD12R,1.250000X0.680000*%
%ADD13R,3.100000X3.100000*%
%ADD14C,0.908000*%
%ADD15R,1.400000X1.200000*%
%ADD16O,3.416000X1.908000*%
%ADD17O,1.908000X3.416000*%
%ADD18C,2.000000*%
%ADD19C,0.100000*%
%ADD20C,1.350000*%
%ADD21R,4.400000X4.400000*%
%ADD22C,2.100000*%
%ADD23C,2.100000*%
%ADD24R,1.700000X1.950000*%
%ADD25R,0.650000X1.700000*%
%ADD26R,1.700000X0.650000*%
%ADD27R,1.460000X1.050000*%
%ADD28R,1.900000X1.800000*%
%ADD29C,6.000000*%
%ADD30C,2.200000*%
%ADD31C,4.400000*%
%ADD32R,0.650000X1.100000*%
%ADD33R,1.100000X0.650000*%
%ADD34R,3.850000X3.850000*%
G04 APERTURE END LIST*
D10*
G04 #@! TO.C,U4*
X160586500Y-92413500D02*
X160586500Y-89586500D01*
X160586500Y-89586500D02*
X161012600Y-89586500D01*
X161012600Y-89586500D02*
X161012600Y-92413500D01*
X161012600Y-92413500D02*
X160586500Y-92413500D01*
X161412600Y-92413500D02*
X161412600Y-89586500D01*
X161412600Y-89586500D02*
X161800000Y-89586500D01*
X161800000Y-89586500D02*
X161800000Y-92413500D01*
X161800000Y-92413500D02*
X161412600Y-92413500D01*
X162200000Y-92413500D02*
X162200000Y-89586500D01*
X162200000Y-89586500D02*
X162587400Y-89586500D01*
X162587400Y-89586500D02*
X162587400Y-92413500D01*
X162587400Y-92413500D02*
X162200000Y-92413500D01*
X162987400Y-92413500D02*
X162987400Y-89586500D01*
X162987400Y-89586500D02*
X163413500Y-89586500D01*
X163413500Y-89586500D02*
X163413500Y-92413500D01*
X163413500Y-92413500D02*
X162987400Y-92413500D01*
X160586500Y-92413500D02*
X160586500Y-91987400D01*
X160586500Y-91987400D02*
X163413500Y-91987400D01*
X163413500Y-91987400D02*
X163413500Y-92413500D01*
X163413500Y-92413500D02*
X160586500Y-92413500D01*
X160586500Y-91200000D02*
X160586500Y-91587400D01*
X160586500Y-91587400D02*
X163413500Y-91587400D01*
X163413500Y-91587400D02*
X163413500Y-91200000D01*
X163413500Y-91200000D02*
X160586500Y-91200000D01*
X160586500Y-90412600D02*
X160586500Y-90800000D01*
X160586500Y-90800000D02*
X163413500Y-90800000D01*
X163413500Y-90800000D02*
X163413500Y-90412600D01*
X163413500Y-90412600D02*
X160586500Y-90412600D01*
X160586500Y-90012600D02*
X160586500Y-89586500D01*
X160586500Y-89586500D02*
X163413500Y-89586500D01*
X163413500Y-89586500D02*
X163413500Y-90012600D01*
X163413500Y-90012600D02*
X160586500Y-90012600D01*
G04 #@! TD*
D11*
G04 #@! TO.C,U4*
X160999999Y-92975000D03*
X161500001Y-92975000D03*
X162000000Y-92975000D03*
X162499999Y-92975000D03*
X163000001Y-92975000D03*
D12*
X163975000Y-92000252D03*
X163975000Y-91500126D03*
X163975000Y-91000000D03*
X163975000Y-90499874D03*
X163975000Y-89999748D03*
D11*
X163000001Y-89025000D03*
X162499999Y-89025000D03*
X162000000Y-89025000D03*
X161500001Y-89025000D03*
X160999999Y-89025000D03*
D12*
X160025000Y-89999748D03*
X160025000Y-90499874D03*
X160025000Y-91000000D03*
X160025000Y-91500126D03*
X160025000Y-92000252D03*
D13*
X162000000Y-91000000D03*
D14*
X162000000Y-91787400D03*
X162787400Y-91000000D03*
X161212600Y-91000000D03*
X162000000Y-90212600D03*
G04 #@! TD*
D15*
G04 #@! TO.C,D2*
X138450000Y-120554156D03*
X135950000Y-120554156D03*
X135950000Y-121954156D03*
X138450000Y-121954156D03*
G04 #@! TD*
G04 #@! TO.C,D1*
X130250000Y-120554156D03*
X127750000Y-120554156D03*
X127750000Y-121954156D03*
X130250000Y-121954156D03*
G04 #@! TD*
D16*
G04 #@! TO.C,J8*
X154000000Y-70250000D03*
D17*
X149000000Y-75250000D03*
X159000000Y-75250000D03*
D18*
X154000000Y-75250000D03*
X149000000Y-70250000D03*
X159000000Y-70250000D03*
D17*
X151500000Y-75250000D03*
G04 #@! TD*
D19*
G04 #@! TO.C,C2*
G36*
X116170581Y-117303703D02*
X116203343Y-117308563D01*
X116235471Y-117316611D01*
X116266656Y-117327769D01*
X116296596Y-117341930D01*
X116325005Y-117358957D01*
X116351608Y-117378687D01*
X116376149Y-117400929D01*
X116398391Y-117425470D01*
X116418121Y-117452073D01*
X116435148Y-117480482D01*
X116449309Y-117510422D01*
X116460467Y-117541607D01*
X116468515Y-117573735D01*
X116473375Y-117606497D01*
X116475000Y-117639578D01*
X116475000Y-118314578D01*
X116473375Y-118347659D01*
X116468515Y-118380421D01*
X116460467Y-118412549D01*
X116449309Y-118443734D01*
X116435148Y-118473674D01*
X116418121Y-118502083D01*
X116398391Y-118528686D01*
X116376149Y-118553227D01*
X116351608Y-118575469D01*
X116325005Y-118595199D01*
X116296596Y-118612226D01*
X116266656Y-118626387D01*
X116235471Y-118637545D01*
X116203343Y-118645593D01*
X116170581Y-118650453D01*
X116137500Y-118652078D01*
X115362500Y-118652078D01*
X115329419Y-118650453D01*
X115296657Y-118645593D01*
X115264529Y-118637545D01*
X115233344Y-118626387D01*
X115203404Y-118612226D01*
X115174995Y-118595199D01*
X115148392Y-118575469D01*
X115123851Y-118553227D01*
X115101609Y-118528686D01*
X115081879Y-118502083D01*
X115064852Y-118473674D01*
X115050691Y-118443734D01*
X115039533Y-118412549D01*
X115031485Y-118380421D01*
X115026625Y-118347659D01*
X115025000Y-118314578D01*
X115025000Y-117639578D01*
X115026625Y-117606497D01*
X115031485Y-117573735D01*
X115039533Y-117541607D01*
X115050691Y-117510422D01*
X115064852Y-117480482D01*
X115081879Y-117452073D01*
X115101609Y-117425470D01*
X115123851Y-117400929D01*
X115148392Y-117378687D01*
X115174995Y-117358957D01*
X115203404Y-117341930D01*
X115233344Y-117327769D01*
X115264529Y-117316611D01*
X115296657Y-117308563D01*
X115329419Y-117303703D01*
X115362500Y-117302078D01*
X116137500Y-117302078D01*
X116170581Y-117303703D01*
X116170581Y-117303703D01*
G37*
D20*
X115750000Y-117977078D03*
D19*
G36*
X117920581Y-117303703D02*
X117953343Y-117308563D01*
X117985471Y-117316611D01*
X118016656Y-117327769D01*
X118046596Y-117341930D01*
X118075005Y-117358957D01*
X118101608Y-117378687D01*
X118126149Y-117400929D01*
X118148391Y-117425470D01*
X118168121Y-117452073D01*
X118185148Y-117480482D01*
X118199309Y-117510422D01*
X118210467Y-117541607D01*
X118218515Y-117573735D01*
X118223375Y-117606497D01*
X118225000Y-117639578D01*
X118225000Y-118314578D01*
X118223375Y-118347659D01*
X118218515Y-118380421D01*
X118210467Y-118412549D01*
X118199309Y-118443734D01*
X118185148Y-118473674D01*
X118168121Y-118502083D01*
X118148391Y-118528686D01*
X118126149Y-118553227D01*
X118101608Y-118575469D01*
X118075005Y-118595199D01*
X118046596Y-118612226D01*
X118016656Y-118626387D01*
X117985471Y-118637545D01*
X117953343Y-118645593D01*
X117920581Y-118650453D01*
X117887500Y-118652078D01*
X117112500Y-118652078D01*
X117079419Y-118650453D01*
X117046657Y-118645593D01*
X117014529Y-118637545D01*
X116983344Y-118626387D01*
X116953404Y-118612226D01*
X116924995Y-118595199D01*
X116898392Y-118575469D01*
X116873851Y-118553227D01*
X116851609Y-118528686D01*
X116831879Y-118502083D01*
X116814852Y-118473674D01*
X116800691Y-118443734D01*
X116789533Y-118412549D01*
X116781485Y-118380421D01*
X116776625Y-118347659D01*
X116775000Y-118314578D01*
X116775000Y-117639578D01*
X116776625Y-117606497D01*
X116781485Y-117573735D01*
X116789533Y-117541607D01*
X116800691Y-117510422D01*
X116814852Y-117480482D01*
X116831879Y-117452073D01*
X116851609Y-117425470D01*
X116873851Y-117400929D01*
X116898392Y-117378687D01*
X116924995Y-117358957D01*
X116953404Y-117341930D01*
X116983344Y-117327769D01*
X117014529Y-117316611D01*
X117046657Y-117308563D01*
X117079419Y-117303703D01*
X117112500Y-117302078D01*
X117887500Y-117302078D01*
X117920581Y-117303703D01*
X117920581Y-117303703D01*
G37*
D20*
X117500000Y-117977078D03*
G04 #@! TD*
D19*
G04 #@! TO.C,C3*
G36*
X127795581Y-83576625D02*
X127828343Y-83581485D01*
X127860471Y-83589533D01*
X127891656Y-83600691D01*
X127921596Y-83614852D01*
X127950005Y-83631879D01*
X127976608Y-83651609D01*
X128001149Y-83673851D01*
X128023391Y-83698392D01*
X128043121Y-83724995D01*
X128060148Y-83753404D01*
X128074309Y-83783344D01*
X128085467Y-83814529D01*
X128093515Y-83846657D01*
X128098375Y-83879419D01*
X128100000Y-83912500D01*
X128100000Y-84587500D01*
X128098375Y-84620581D01*
X128093515Y-84653343D01*
X128085467Y-84685471D01*
X128074309Y-84716656D01*
X128060148Y-84746596D01*
X128043121Y-84775005D01*
X128023391Y-84801608D01*
X128001149Y-84826149D01*
X127976608Y-84848391D01*
X127950005Y-84868121D01*
X127921596Y-84885148D01*
X127891656Y-84899309D01*
X127860471Y-84910467D01*
X127828343Y-84918515D01*
X127795581Y-84923375D01*
X127762500Y-84925000D01*
X126987500Y-84925000D01*
X126954419Y-84923375D01*
X126921657Y-84918515D01*
X126889529Y-84910467D01*
X126858344Y-84899309D01*
X126828404Y-84885148D01*
X126799995Y-84868121D01*
X126773392Y-84848391D01*
X126748851Y-84826149D01*
X126726609Y-84801608D01*
X126706879Y-84775005D01*
X126689852Y-84746596D01*
X126675691Y-84716656D01*
X126664533Y-84685471D01*
X126656485Y-84653343D01*
X126651625Y-84620581D01*
X126650000Y-84587500D01*
X126650000Y-83912500D01*
X126651625Y-83879419D01*
X126656485Y-83846657D01*
X126664533Y-83814529D01*
X126675691Y-83783344D01*
X126689852Y-83753404D01*
X126706879Y-83724995D01*
X126726609Y-83698392D01*
X126748851Y-83673851D01*
X126773392Y-83651609D01*
X126799995Y-83631879D01*
X126828404Y-83614852D01*
X126858344Y-83600691D01*
X126889529Y-83589533D01*
X126921657Y-83581485D01*
X126954419Y-83576625D01*
X126987500Y-83575000D01*
X127762500Y-83575000D01*
X127795581Y-83576625D01*
X127795581Y-83576625D01*
G37*
D20*
X127375000Y-84250000D03*
D19*
G36*
X126045581Y-83576625D02*
X126078343Y-83581485D01*
X126110471Y-83589533D01*
X126141656Y-83600691D01*
X126171596Y-83614852D01*
X126200005Y-83631879D01*
X126226608Y-83651609D01*
X126251149Y-83673851D01*
X126273391Y-83698392D01*
X126293121Y-83724995D01*
X126310148Y-83753404D01*
X126324309Y-83783344D01*
X126335467Y-83814529D01*
X126343515Y-83846657D01*
X126348375Y-83879419D01*
X126350000Y-83912500D01*
X126350000Y-84587500D01*
X126348375Y-84620581D01*
X126343515Y-84653343D01*
X126335467Y-84685471D01*
X126324309Y-84716656D01*
X126310148Y-84746596D01*
X126293121Y-84775005D01*
X126273391Y-84801608D01*
X126251149Y-84826149D01*
X126226608Y-84848391D01*
X126200005Y-84868121D01*
X126171596Y-84885148D01*
X126141656Y-84899309D01*
X126110471Y-84910467D01*
X126078343Y-84918515D01*
X126045581Y-84923375D01*
X126012500Y-84925000D01*
X125237500Y-84925000D01*
X125204419Y-84923375D01*
X125171657Y-84918515D01*
X125139529Y-84910467D01*
X125108344Y-84899309D01*
X125078404Y-84885148D01*
X125049995Y-84868121D01*
X125023392Y-84848391D01*
X124998851Y-84826149D01*
X124976609Y-84801608D01*
X124956879Y-84775005D01*
X124939852Y-84746596D01*
X124925691Y-84716656D01*
X124914533Y-84685471D01*
X124906485Y-84653343D01*
X124901625Y-84620581D01*
X124900000Y-84587500D01*
X124900000Y-83912500D01*
X124901625Y-83879419D01*
X124906485Y-83846657D01*
X124914533Y-83814529D01*
X124925691Y-83783344D01*
X124939852Y-83753404D01*
X124956879Y-83724995D01*
X124976609Y-83698392D01*
X124998851Y-83673851D01*
X125023392Y-83651609D01*
X125049995Y-83631879D01*
X125078404Y-83614852D01*
X125108344Y-83600691D01*
X125139529Y-83589533D01*
X125171657Y-83581485D01*
X125204419Y-83576625D01*
X125237500Y-83575000D01*
X126012500Y-83575000D01*
X126045581Y-83576625D01*
X126045581Y-83576625D01*
G37*
D20*
X125625000Y-84250000D03*
G04 #@! TD*
D19*
G04 #@! TO.C,C6*
G36*
X138120581Y-91901625D02*
X138153343Y-91906485D01*
X138185471Y-91914533D01*
X138216656Y-91925691D01*
X138246596Y-91939852D01*
X138275005Y-91956879D01*
X138301608Y-91976609D01*
X138326149Y-91998851D01*
X138348391Y-92023392D01*
X138368121Y-92049995D01*
X138385148Y-92078404D01*
X138399309Y-92108344D01*
X138410467Y-92139529D01*
X138418515Y-92171657D01*
X138423375Y-92204419D01*
X138425000Y-92237500D01*
X138425000Y-93012500D01*
X138423375Y-93045581D01*
X138418515Y-93078343D01*
X138410467Y-93110471D01*
X138399309Y-93141656D01*
X138385148Y-93171596D01*
X138368121Y-93200005D01*
X138348391Y-93226608D01*
X138326149Y-93251149D01*
X138301608Y-93273391D01*
X138275005Y-93293121D01*
X138246596Y-93310148D01*
X138216656Y-93324309D01*
X138185471Y-93335467D01*
X138153343Y-93343515D01*
X138120581Y-93348375D01*
X138087500Y-93350000D01*
X137412500Y-93350000D01*
X137379419Y-93348375D01*
X137346657Y-93343515D01*
X137314529Y-93335467D01*
X137283344Y-93324309D01*
X137253404Y-93310148D01*
X137224995Y-93293121D01*
X137198392Y-93273391D01*
X137173851Y-93251149D01*
X137151609Y-93226608D01*
X137131879Y-93200005D01*
X137114852Y-93171596D01*
X137100691Y-93141656D01*
X137089533Y-93110471D01*
X137081485Y-93078343D01*
X137076625Y-93045581D01*
X137075000Y-93012500D01*
X137075000Y-92237500D01*
X137076625Y-92204419D01*
X137081485Y-92171657D01*
X137089533Y-92139529D01*
X137100691Y-92108344D01*
X137114852Y-92078404D01*
X137131879Y-92049995D01*
X137151609Y-92023392D01*
X137173851Y-91998851D01*
X137198392Y-91976609D01*
X137224995Y-91956879D01*
X137253404Y-91939852D01*
X137283344Y-91925691D01*
X137314529Y-91914533D01*
X137346657Y-91906485D01*
X137379419Y-91901625D01*
X137412500Y-91900000D01*
X138087500Y-91900000D01*
X138120581Y-91901625D01*
X138120581Y-91901625D01*
G37*
D20*
X137750000Y-92625000D03*
D19*
G36*
X138120581Y-93651625D02*
X138153343Y-93656485D01*
X138185471Y-93664533D01*
X138216656Y-93675691D01*
X138246596Y-93689852D01*
X138275005Y-93706879D01*
X138301608Y-93726609D01*
X138326149Y-93748851D01*
X138348391Y-93773392D01*
X138368121Y-93799995D01*
X138385148Y-93828404D01*
X138399309Y-93858344D01*
X138410467Y-93889529D01*
X138418515Y-93921657D01*
X138423375Y-93954419D01*
X138425000Y-93987500D01*
X138425000Y-94762500D01*
X138423375Y-94795581D01*
X138418515Y-94828343D01*
X138410467Y-94860471D01*
X138399309Y-94891656D01*
X138385148Y-94921596D01*
X138368121Y-94950005D01*
X138348391Y-94976608D01*
X138326149Y-95001149D01*
X138301608Y-95023391D01*
X138275005Y-95043121D01*
X138246596Y-95060148D01*
X138216656Y-95074309D01*
X138185471Y-95085467D01*
X138153343Y-95093515D01*
X138120581Y-95098375D01*
X138087500Y-95100000D01*
X137412500Y-95100000D01*
X137379419Y-95098375D01*
X137346657Y-95093515D01*
X137314529Y-95085467D01*
X137283344Y-95074309D01*
X137253404Y-95060148D01*
X137224995Y-95043121D01*
X137198392Y-95023391D01*
X137173851Y-95001149D01*
X137151609Y-94976608D01*
X137131879Y-94950005D01*
X137114852Y-94921596D01*
X137100691Y-94891656D01*
X137089533Y-94860471D01*
X137081485Y-94828343D01*
X137076625Y-94795581D01*
X137075000Y-94762500D01*
X137075000Y-93987500D01*
X137076625Y-93954419D01*
X137081485Y-93921657D01*
X137089533Y-93889529D01*
X137100691Y-93858344D01*
X137114852Y-93828404D01*
X137131879Y-93799995D01*
X137151609Y-93773392D01*
X137173851Y-93748851D01*
X137198392Y-93726609D01*
X137224995Y-93706879D01*
X137253404Y-93689852D01*
X137283344Y-93675691D01*
X137314529Y-93664533D01*
X137346657Y-93656485D01*
X137379419Y-93651625D01*
X137412500Y-93650000D01*
X138087500Y-93650000D01*
X138120581Y-93651625D01*
X138120581Y-93651625D01*
G37*
D20*
X137750000Y-94375000D03*
G04 #@! TD*
D19*
G04 #@! TO.C,C7*
G36*
X136120581Y-91901625D02*
X136153343Y-91906485D01*
X136185471Y-91914533D01*
X136216656Y-91925691D01*
X136246596Y-91939852D01*
X136275005Y-91956879D01*
X136301608Y-91976609D01*
X136326149Y-91998851D01*
X136348391Y-92023392D01*
X136368121Y-92049995D01*
X136385148Y-92078404D01*
X136399309Y-92108344D01*
X136410467Y-92139529D01*
X136418515Y-92171657D01*
X136423375Y-92204419D01*
X136425000Y-92237500D01*
X136425000Y-93012500D01*
X136423375Y-93045581D01*
X136418515Y-93078343D01*
X136410467Y-93110471D01*
X136399309Y-93141656D01*
X136385148Y-93171596D01*
X136368121Y-93200005D01*
X136348391Y-93226608D01*
X136326149Y-93251149D01*
X136301608Y-93273391D01*
X136275005Y-93293121D01*
X136246596Y-93310148D01*
X136216656Y-93324309D01*
X136185471Y-93335467D01*
X136153343Y-93343515D01*
X136120581Y-93348375D01*
X136087500Y-93350000D01*
X135412500Y-93350000D01*
X135379419Y-93348375D01*
X135346657Y-93343515D01*
X135314529Y-93335467D01*
X135283344Y-93324309D01*
X135253404Y-93310148D01*
X135224995Y-93293121D01*
X135198392Y-93273391D01*
X135173851Y-93251149D01*
X135151609Y-93226608D01*
X135131879Y-93200005D01*
X135114852Y-93171596D01*
X135100691Y-93141656D01*
X135089533Y-93110471D01*
X135081485Y-93078343D01*
X135076625Y-93045581D01*
X135075000Y-93012500D01*
X135075000Y-92237500D01*
X135076625Y-92204419D01*
X135081485Y-92171657D01*
X135089533Y-92139529D01*
X135100691Y-92108344D01*
X135114852Y-92078404D01*
X135131879Y-92049995D01*
X135151609Y-92023392D01*
X135173851Y-91998851D01*
X135198392Y-91976609D01*
X135224995Y-91956879D01*
X135253404Y-91939852D01*
X135283344Y-91925691D01*
X135314529Y-91914533D01*
X135346657Y-91906485D01*
X135379419Y-91901625D01*
X135412500Y-91900000D01*
X136087500Y-91900000D01*
X136120581Y-91901625D01*
X136120581Y-91901625D01*
G37*
D20*
X135750000Y-92625000D03*
D19*
G36*
X136120581Y-93651625D02*
X136153343Y-93656485D01*
X136185471Y-93664533D01*
X136216656Y-93675691D01*
X136246596Y-93689852D01*
X136275005Y-93706879D01*
X136301608Y-93726609D01*
X136326149Y-93748851D01*
X136348391Y-93773392D01*
X136368121Y-93799995D01*
X136385148Y-93828404D01*
X136399309Y-93858344D01*
X136410467Y-93889529D01*
X136418515Y-93921657D01*
X136423375Y-93954419D01*
X136425000Y-93987500D01*
X136425000Y-94762500D01*
X136423375Y-94795581D01*
X136418515Y-94828343D01*
X136410467Y-94860471D01*
X136399309Y-94891656D01*
X136385148Y-94921596D01*
X136368121Y-94950005D01*
X136348391Y-94976608D01*
X136326149Y-95001149D01*
X136301608Y-95023391D01*
X136275005Y-95043121D01*
X136246596Y-95060148D01*
X136216656Y-95074309D01*
X136185471Y-95085467D01*
X136153343Y-95093515D01*
X136120581Y-95098375D01*
X136087500Y-95100000D01*
X135412500Y-95100000D01*
X135379419Y-95098375D01*
X135346657Y-95093515D01*
X135314529Y-95085467D01*
X135283344Y-95074309D01*
X135253404Y-95060148D01*
X135224995Y-95043121D01*
X135198392Y-95023391D01*
X135173851Y-95001149D01*
X135151609Y-94976608D01*
X135131879Y-94950005D01*
X135114852Y-94921596D01*
X135100691Y-94891656D01*
X135089533Y-94860471D01*
X135081485Y-94828343D01*
X135076625Y-94795581D01*
X135075000Y-94762500D01*
X135075000Y-93987500D01*
X135076625Y-93954419D01*
X135081485Y-93921657D01*
X135089533Y-93889529D01*
X135100691Y-93858344D01*
X135114852Y-93828404D01*
X135131879Y-93799995D01*
X135151609Y-93773392D01*
X135173851Y-93748851D01*
X135198392Y-93726609D01*
X135224995Y-93706879D01*
X135253404Y-93689852D01*
X135283344Y-93675691D01*
X135314529Y-93664533D01*
X135346657Y-93656485D01*
X135379419Y-93651625D01*
X135412500Y-93650000D01*
X136087500Y-93650000D01*
X136120581Y-93651625D01*
X136120581Y-93651625D01*
G37*
D20*
X135750000Y-94375000D03*
G04 #@! TD*
D19*
G04 #@! TO.C,C18*
G36*
X155620581Y-80401625D02*
X155653343Y-80406485D01*
X155685471Y-80414533D01*
X155716656Y-80425691D01*
X155746596Y-80439852D01*
X155775005Y-80456879D01*
X155801608Y-80476609D01*
X155826149Y-80498851D01*
X155848391Y-80523392D01*
X155868121Y-80549995D01*
X155885148Y-80578404D01*
X155899309Y-80608344D01*
X155910467Y-80639529D01*
X155918515Y-80671657D01*
X155923375Y-80704419D01*
X155925000Y-80737500D01*
X155925000Y-81512500D01*
X155923375Y-81545581D01*
X155918515Y-81578343D01*
X155910467Y-81610471D01*
X155899309Y-81641656D01*
X155885148Y-81671596D01*
X155868121Y-81700005D01*
X155848391Y-81726608D01*
X155826149Y-81751149D01*
X155801608Y-81773391D01*
X155775005Y-81793121D01*
X155746596Y-81810148D01*
X155716656Y-81824309D01*
X155685471Y-81835467D01*
X155653343Y-81843515D01*
X155620581Y-81848375D01*
X155587500Y-81850000D01*
X154912500Y-81850000D01*
X154879419Y-81848375D01*
X154846657Y-81843515D01*
X154814529Y-81835467D01*
X154783344Y-81824309D01*
X154753404Y-81810148D01*
X154724995Y-81793121D01*
X154698392Y-81773391D01*
X154673851Y-81751149D01*
X154651609Y-81726608D01*
X154631879Y-81700005D01*
X154614852Y-81671596D01*
X154600691Y-81641656D01*
X154589533Y-81610471D01*
X154581485Y-81578343D01*
X154576625Y-81545581D01*
X154575000Y-81512500D01*
X154575000Y-80737500D01*
X154576625Y-80704419D01*
X154581485Y-80671657D01*
X154589533Y-80639529D01*
X154600691Y-80608344D01*
X154614852Y-80578404D01*
X154631879Y-80549995D01*
X154651609Y-80523392D01*
X154673851Y-80498851D01*
X154698392Y-80476609D01*
X154724995Y-80456879D01*
X154753404Y-80439852D01*
X154783344Y-80425691D01*
X154814529Y-80414533D01*
X154846657Y-80406485D01*
X154879419Y-80401625D01*
X154912500Y-80400000D01*
X155587500Y-80400000D01*
X155620581Y-80401625D01*
X155620581Y-80401625D01*
G37*
D20*
X155250000Y-81125000D03*
D19*
G36*
X155620581Y-82151625D02*
X155653343Y-82156485D01*
X155685471Y-82164533D01*
X155716656Y-82175691D01*
X155746596Y-82189852D01*
X155775005Y-82206879D01*
X155801608Y-82226609D01*
X155826149Y-82248851D01*
X155848391Y-82273392D01*
X155868121Y-82299995D01*
X155885148Y-82328404D01*
X155899309Y-82358344D01*
X155910467Y-82389529D01*
X155918515Y-82421657D01*
X155923375Y-82454419D01*
X155925000Y-82487500D01*
X155925000Y-83262500D01*
X155923375Y-83295581D01*
X155918515Y-83328343D01*
X155910467Y-83360471D01*
X155899309Y-83391656D01*
X155885148Y-83421596D01*
X155868121Y-83450005D01*
X155848391Y-83476608D01*
X155826149Y-83501149D01*
X155801608Y-83523391D01*
X155775005Y-83543121D01*
X155746596Y-83560148D01*
X155716656Y-83574309D01*
X155685471Y-83585467D01*
X155653343Y-83593515D01*
X155620581Y-83598375D01*
X155587500Y-83600000D01*
X154912500Y-83600000D01*
X154879419Y-83598375D01*
X154846657Y-83593515D01*
X154814529Y-83585467D01*
X154783344Y-83574309D01*
X154753404Y-83560148D01*
X154724995Y-83543121D01*
X154698392Y-83523391D01*
X154673851Y-83501149D01*
X154651609Y-83476608D01*
X154631879Y-83450005D01*
X154614852Y-83421596D01*
X154600691Y-83391656D01*
X154589533Y-83360471D01*
X154581485Y-83328343D01*
X154576625Y-83295581D01*
X154575000Y-83262500D01*
X154575000Y-82487500D01*
X154576625Y-82454419D01*
X154581485Y-82421657D01*
X154589533Y-82389529D01*
X154600691Y-82358344D01*
X154614852Y-82328404D01*
X154631879Y-82299995D01*
X154651609Y-82273392D01*
X154673851Y-82248851D01*
X154698392Y-82226609D01*
X154724995Y-82206879D01*
X154753404Y-82189852D01*
X154783344Y-82175691D01*
X154814529Y-82164533D01*
X154846657Y-82156485D01*
X154879419Y-82151625D01*
X154912500Y-82150000D01*
X155587500Y-82150000D01*
X155620581Y-82151625D01*
X155620581Y-82151625D01*
G37*
D20*
X155250000Y-82875000D03*
G04 #@! TD*
D19*
G04 #@! TO.C,C19*
G36*
X153120581Y-82151625D02*
X153153343Y-82156485D01*
X153185471Y-82164533D01*
X153216656Y-82175691D01*
X153246596Y-82189852D01*
X153275005Y-82206879D01*
X153301608Y-82226609D01*
X153326149Y-82248851D01*
X153348391Y-82273392D01*
X153368121Y-82299995D01*
X153385148Y-82328404D01*
X153399309Y-82358344D01*
X153410467Y-82389529D01*
X153418515Y-82421657D01*
X153423375Y-82454419D01*
X153425000Y-82487500D01*
X153425000Y-83262500D01*
X153423375Y-83295581D01*
X153418515Y-83328343D01*
X153410467Y-83360471D01*
X153399309Y-83391656D01*
X153385148Y-83421596D01*
X153368121Y-83450005D01*
X153348391Y-83476608D01*
X153326149Y-83501149D01*
X153301608Y-83523391D01*
X153275005Y-83543121D01*
X153246596Y-83560148D01*
X153216656Y-83574309D01*
X153185471Y-83585467D01*
X153153343Y-83593515D01*
X153120581Y-83598375D01*
X153087500Y-83600000D01*
X152412500Y-83600000D01*
X152379419Y-83598375D01*
X152346657Y-83593515D01*
X152314529Y-83585467D01*
X152283344Y-83574309D01*
X152253404Y-83560148D01*
X152224995Y-83543121D01*
X152198392Y-83523391D01*
X152173851Y-83501149D01*
X152151609Y-83476608D01*
X152131879Y-83450005D01*
X152114852Y-83421596D01*
X152100691Y-83391656D01*
X152089533Y-83360471D01*
X152081485Y-83328343D01*
X152076625Y-83295581D01*
X152075000Y-83262500D01*
X152075000Y-82487500D01*
X152076625Y-82454419D01*
X152081485Y-82421657D01*
X152089533Y-82389529D01*
X152100691Y-82358344D01*
X152114852Y-82328404D01*
X152131879Y-82299995D01*
X152151609Y-82273392D01*
X152173851Y-82248851D01*
X152198392Y-82226609D01*
X152224995Y-82206879D01*
X152253404Y-82189852D01*
X152283344Y-82175691D01*
X152314529Y-82164533D01*
X152346657Y-82156485D01*
X152379419Y-82151625D01*
X152412500Y-82150000D01*
X153087500Y-82150000D01*
X153120581Y-82151625D01*
X153120581Y-82151625D01*
G37*
D20*
X152750000Y-82875000D03*
D19*
G36*
X153120581Y-80401625D02*
X153153343Y-80406485D01*
X153185471Y-80414533D01*
X153216656Y-80425691D01*
X153246596Y-80439852D01*
X153275005Y-80456879D01*
X153301608Y-80476609D01*
X153326149Y-80498851D01*
X153348391Y-80523392D01*
X153368121Y-80549995D01*
X153385148Y-80578404D01*
X153399309Y-80608344D01*
X153410467Y-80639529D01*
X153418515Y-80671657D01*
X153423375Y-80704419D01*
X153425000Y-80737500D01*
X153425000Y-81512500D01*
X153423375Y-81545581D01*
X153418515Y-81578343D01*
X153410467Y-81610471D01*
X153399309Y-81641656D01*
X153385148Y-81671596D01*
X153368121Y-81700005D01*
X153348391Y-81726608D01*
X153326149Y-81751149D01*
X153301608Y-81773391D01*
X153275005Y-81793121D01*
X153246596Y-81810148D01*
X153216656Y-81824309D01*
X153185471Y-81835467D01*
X153153343Y-81843515D01*
X153120581Y-81848375D01*
X153087500Y-81850000D01*
X152412500Y-81850000D01*
X152379419Y-81848375D01*
X152346657Y-81843515D01*
X152314529Y-81835467D01*
X152283344Y-81824309D01*
X152253404Y-81810148D01*
X152224995Y-81793121D01*
X152198392Y-81773391D01*
X152173851Y-81751149D01*
X152151609Y-81726608D01*
X152131879Y-81700005D01*
X152114852Y-81671596D01*
X152100691Y-81641656D01*
X152089533Y-81610471D01*
X152081485Y-81578343D01*
X152076625Y-81545581D01*
X152075000Y-81512500D01*
X152075000Y-80737500D01*
X152076625Y-80704419D01*
X152081485Y-80671657D01*
X152089533Y-80639529D01*
X152100691Y-80608344D01*
X152114852Y-80578404D01*
X152131879Y-80549995D01*
X152151609Y-80523392D01*
X152173851Y-80498851D01*
X152198392Y-80476609D01*
X152224995Y-80456879D01*
X152253404Y-80439852D01*
X152283344Y-80425691D01*
X152314529Y-80414533D01*
X152346657Y-80406485D01*
X152379419Y-80401625D01*
X152412500Y-80400000D01*
X153087500Y-80400000D01*
X153120581Y-80401625D01*
X153120581Y-80401625D01*
G37*
D20*
X152750000Y-81125000D03*
G04 #@! TD*
D19*
G04 #@! TO.C,C12*
G36*
X144377814Y-93117742D02*
X144410576Y-93122602D01*
X144442704Y-93130650D01*
X144473889Y-93141808D01*
X144503829Y-93155969D01*
X144532238Y-93172996D01*
X144558841Y-93192726D01*
X144583382Y-93214968D01*
X144605624Y-93239509D01*
X144625354Y-93266112D01*
X144642381Y-93294521D01*
X144656542Y-93324461D01*
X144667700Y-93355646D01*
X144675748Y-93387774D01*
X144680608Y-93420536D01*
X144682233Y-93453617D01*
X144682233Y-94228617D01*
X144680608Y-94261698D01*
X144675748Y-94294460D01*
X144667700Y-94326588D01*
X144656542Y-94357773D01*
X144642381Y-94387713D01*
X144625354Y-94416122D01*
X144605624Y-94442725D01*
X144583382Y-94467266D01*
X144558841Y-94489508D01*
X144532238Y-94509238D01*
X144503829Y-94526265D01*
X144473889Y-94540426D01*
X144442704Y-94551584D01*
X144410576Y-94559632D01*
X144377814Y-94564492D01*
X144344733Y-94566117D01*
X143669733Y-94566117D01*
X143636652Y-94564492D01*
X143603890Y-94559632D01*
X143571762Y-94551584D01*
X143540577Y-94540426D01*
X143510637Y-94526265D01*
X143482228Y-94509238D01*
X143455625Y-94489508D01*
X143431084Y-94467266D01*
X143408842Y-94442725D01*
X143389112Y-94416122D01*
X143372085Y-94387713D01*
X143357924Y-94357773D01*
X143346766Y-94326588D01*
X143338718Y-94294460D01*
X143333858Y-94261698D01*
X143332233Y-94228617D01*
X143332233Y-93453617D01*
X143333858Y-93420536D01*
X143338718Y-93387774D01*
X143346766Y-93355646D01*
X143357924Y-93324461D01*
X143372085Y-93294521D01*
X143389112Y-93266112D01*
X143408842Y-93239509D01*
X143431084Y-93214968D01*
X143455625Y-93192726D01*
X143482228Y-93172996D01*
X143510637Y-93155969D01*
X143540577Y-93141808D01*
X143571762Y-93130650D01*
X143603890Y-93122602D01*
X143636652Y-93117742D01*
X143669733Y-93116117D01*
X144344733Y-93116117D01*
X144377814Y-93117742D01*
X144377814Y-93117742D01*
G37*
D20*
X144007233Y-93841117D03*
D19*
G36*
X144377814Y-94867742D02*
X144410576Y-94872602D01*
X144442704Y-94880650D01*
X144473889Y-94891808D01*
X144503829Y-94905969D01*
X144532238Y-94922996D01*
X144558841Y-94942726D01*
X144583382Y-94964968D01*
X144605624Y-94989509D01*
X144625354Y-95016112D01*
X144642381Y-95044521D01*
X144656542Y-95074461D01*
X144667700Y-95105646D01*
X144675748Y-95137774D01*
X144680608Y-95170536D01*
X144682233Y-95203617D01*
X144682233Y-95978617D01*
X144680608Y-96011698D01*
X144675748Y-96044460D01*
X144667700Y-96076588D01*
X144656542Y-96107773D01*
X144642381Y-96137713D01*
X144625354Y-96166122D01*
X144605624Y-96192725D01*
X144583382Y-96217266D01*
X144558841Y-96239508D01*
X144532238Y-96259238D01*
X144503829Y-96276265D01*
X144473889Y-96290426D01*
X144442704Y-96301584D01*
X144410576Y-96309632D01*
X144377814Y-96314492D01*
X144344733Y-96316117D01*
X143669733Y-96316117D01*
X143636652Y-96314492D01*
X143603890Y-96309632D01*
X143571762Y-96301584D01*
X143540577Y-96290426D01*
X143510637Y-96276265D01*
X143482228Y-96259238D01*
X143455625Y-96239508D01*
X143431084Y-96217266D01*
X143408842Y-96192725D01*
X143389112Y-96166122D01*
X143372085Y-96137713D01*
X143357924Y-96107773D01*
X143346766Y-96076588D01*
X143338718Y-96044460D01*
X143333858Y-96011698D01*
X143332233Y-95978617D01*
X143332233Y-95203617D01*
X143333858Y-95170536D01*
X143338718Y-95137774D01*
X143346766Y-95105646D01*
X143357924Y-95074461D01*
X143372085Y-95044521D01*
X143389112Y-95016112D01*
X143408842Y-94989509D01*
X143431084Y-94964968D01*
X143455625Y-94942726D01*
X143482228Y-94922996D01*
X143510637Y-94905969D01*
X143540577Y-94891808D01*
X143571762Y-94880650D01*
X143603890Y-94872602D01*
X143636652Y-94867742D01*
X143669733Y-94866117D01*
X144344733Y-94866117D01*
X144377814Y-94867742D01*
X144377814Y-94867742D01*
G37*
D20*
X144007233Y-95591117D03*
G04 #@! TD*
D19*
G04 #@! TO.C,C13*
G36*
X151377814Y-94867742D02*
X151410576Y-94872602D01*
X151442704Y-94880650D01*
X151473889Y-94891808D01*
X151503829Y-94905969D01*
X151532238Y-94922996D01*
X151558841Y-94942726D01*
X151583382Y-94964968D01*
X151605624Y-94989509D01*
X151625354Y-95016112D01*
X151642381Y-95044521D01*
X151656542Y-95074461D01*
X151667700Y-95105646D01*
X151675748Y-95137774D01*
X151680608Y-95170536D01*
X151682233Y-95203617D01*
X151682233Y-95978617D01*
X151680608Y-96011698D01*
X151675748Y-96044460D01*
X151667700Y-96076588D01*
X151656542Y-96107773D01*
X151642381Y-96137713D01*
X151625354Y-96166122D01*
X151605624Y-96192725D01*
X151583382Y-96217266D01*
X151558841Y-96239508D01*
X151532238Y-96259238D01*
X151503829Y-96276265D01*
X151473889Y-96290426D01*
X151442704Y-96301584D01*
X151410576Y-96309632D01*
X151377814Y-96314492D01*
X151344733Y-96316117D01*
X150669733Y-96316117D01*
X150636652Y-96314492D01*
X150603890Y-96309632D01*
X150571762Y-96301584D01*
X150540577Y-96290426D01*
X150510637Y-96276265D01*
X150482228Y-96259238D01*
X150455625Y-96239508D01*
X150431084Y-96217266D01*
X150408842Y-96192725D01*
X150389112Y-96166122D01*
X150372085Y-96137713D01*
X150357924Y-96107773D01*
X150346766Y-96076588D01*
X150338718Y-96044460D01*
X150333858Y-96011698D01*
X150332233Y-95978617D01*
X150332233Y-95203617D01*
X150333858Y-95170536D01*
X150338718Y-95137774D01*
X150346766Y-95105646D01*
X150357924Y-95074461D01*
X150372085Y-95044521D01*
X150389112Y-95016112D01*
X150408842Y-94989509D01*
X150431084Y-94964968D01*
X150455625Y-94942726D01*
X150482228Y-94922996D01*
X150510637Y-94905969D01*
X150540577Y-94891808D01*
X150571762Y-94880650D01*
X150603890Y-94872602D01*
X150636652Y-94867742D01*
X150669733Y-94866117D01*
X151344733Y-94866117D01*
X151377814Y-94867742D01*
X151377814Y-94867742D01*
G37*
D20*
X151007233Y-95591117D03*
D19*
G36*
X151377814Y-93117742D02*
X151410576Y-93122602D01*
X151442704Y-93130650D01*
X151473889Y-93141808D01*
X151503829Y-93155969D01*
X151532238Y-93172996D01*
X151558841Y-93192726D01*
X151583382Y-93214968D01*
X151605624Y-93239509D01*
X151625354Y-93266112D01*
X151642381Y-93294521D01*
X151656542Y-93324461D01*
X151667700Y-93355646D01*
X151675748Y-93387774D01*
X151680608Y-93420536D01*
X151682233Y-93453617D01*
X151682233Y-94228617D01*
X151680608Y-94261698D01*
X151675748Y-94294460D01*
X151667700Y-94326588D01*
X151656542Y-94357773D01*
X151642381Y-94387713D01*
X151625354Y-94416122D01*
X151605624Y-94442725D01*
X151583382Y-94467266D01*
X151558841Y-94489508D01*
X151532238Y-94509238D01*
X151503829Y-94526265D01*
X151473889Y-94540426D01*
X151442704Y-94551584D01*
X151410576Y-94559632D01*
X151377814Y-94564492D01*
X151344733Y-94566117D01*
X150669733Y-94566117D01*
X150636652Y-94564492D01*
X150603890Y-94559632D01*
X150571762Y-94551584D01*
X150540577Y-94540426D01*
X150510637Y-94526265D01*
X150482228Y-94509238D01*
X150455625Y-94489508D01*
X150431084Y-94467266D01*
X150408842Y-94442725D01*
X150389112Y-94416122D01*
X150372085Y-94387713D01*
X150357924Y-94357773D01*
X150346766Y-94326588D01*
X150338718Y-94294460D01*
X150333858Y-94261698D01*
X150332233Y-94228617D01*
X150332233Y-93453617D01*
X150333858Y-93420536D01*
X150338718Y-93387774D01*
X150346766Y-93355646D01*
X150357924Y-93324461D01*
X150372085Y-93294521D01*
X150389112Y-93266112D01*
X150408842Y-93239509D01*
X150431084Y-93214968D01*
X150455625Y-93192726D01*
X150482228Y-93172996D01*
X150510637Y-93155969D01*
X150540577Y-93141808D01*
X150571762Y-93130650D01*
X150603890Y-93122602D01*
X150636652Y-93117742D01*
X150669733Y-93116117D01*
X151344733Y-93116117D01*
X151377814Y-93117742D01*
X151377814Y-93117742D01*
G37*
D20*
X151007233Y-93841117D03*
G04 #@! TD*
D19*
G04 #@! TO.C,D7*
G36*
X142420581Y-75076625D02*
X142453343Y-75081485D01*
X142485471Y-75089533D01*
X142516656Y-75100691D01*
X142546596Y-75114852D01*
X142575005Y-75131879D01*
X142601608Y-75151609D01*
X142626149Y-75173851D01*
X142648391Y-75198392D01*
X142668121Y-75224995D01*
X142685148Y-75253404D01*
X142699309Y-75283344D01*
X142710467Y-75314529D01*
X142718515Y-75346657D01*
X142723375Y-75379419D01*
X142725000Y-75412500D01*
X142725000Y-76087500D01*
X142723375Y-76120581D01*
X142718515Y-76153343D01*
X142710467Y-76185471D01*
X142699309Y-76216656D01*
X142685148Y-76246596D01*
X142668121Y-76275005D01*
X142648391Y-76301608D01*
X142626149Y-76326149D01*
X142601608Y-76348391D01*
X142575005Y-76368121D01*
X142546596Y-76385148D01*
X142516656Y-76399309D01*
X142485471Y-76410467D01*
X142453343Y-76418515D01*
X142420581Y-76423375D01*
X142387500Y-76425000D01*
X141612500Y-76425000D01*
X141579419Y-76423375D01*
X141546657Y-76418515D01*
X141514529Y-76410467D01*
X141483344Y-76399309D01*
X141453404Y-76385148D01*
X141424995Y-76368121D01*
X141398392Y-76348391D01*
X141373851Y-76326149D01*
X141351609Y-76301608D01*
X141331879Y-76275005D01*
X141314852Y-76246596D01*
X141300691Y-76216656D01*
X141289533Y-76185471D01*
X141281485Y-76153343D01*
X141276625Y-76120581D01*
X141275000Y-76087500D01*
X141275000Y-75412500D01*
X141276625Y-75379419D01*
X141281485Y-75346657D01*
X141289533Y-75314529D01*
X141300691Y-75283344D01*
X141314852Y-75253404D01*
X141331879Y-75224995D01*
X141351609Y-75198392D01*
X141373851Y-75173851D01*
X141398392Y-75151609D01*
X141424995Y-75131879D01*
X141453404Y-75114852D01*
X141483344Y-75100691D01*
X141514529Y-75089533D01*
X141546657Y-75081485D01*
X141579419Y-75076625D01*
X141612500Y-75075000D01*
X142387500Y-75075000D01*
X142420581Y-75076625D01*
X142420581Y-75076625D01*
G37*
D20*
X142000000Y-75750000D03*
D19*
G36*
X140670581Y-75076625D02*
X140703343Y-75081485D01*
X140735471Y-75089533D01*
X140766656Y-75100691D01*
X140796596Y-75114852D01*
X140825005Y-75131879D01*
X140851608Y-75151609D01*
X140876149Y-75173851D01*
X140898391Y-75198392D01*
X140918121Y-75224995D01*
X140935148Y-75253404D01*
X140949309Y-75283344D01*
X140960467Y-75314529D01*
X140968515Y-75346657D01*
X140973375Y-75379419D01*
X140975000Y-75412500D01*
X140975000Y-76087500D01*
X140973375Y-76120581D01*
X140968515Y-76153343D01*
X140960467Y-76185471D01*
X140949309Y-76216656D01*
X140935148Y-76246596D01*
X140918121Y-76275005D01*
X140898391Y-76301608D01*
X140876149Y-76326149D01*
X140851608Y-76348391D01*
X140825005Y-76368121D01*
X140796596Y-76385148D01*
X140766656Y-76399309D01*
X140735471Y-76410467D01*
X140703343Y-76418515D01*
X140670581Y-76423375D01*
X140637500Y-76425000D01*
X139862500Y-76425000D01*
X139829419Y-76423375D01*
X139796657Y-76418515D01*
X139764529Y-76410467D01*
X139733344Y-76399309D01*
X139703404Y-76385148D01*
X139674995Y-76368121D01*
X139648392Y-76348391D01*
X139623851Y-76326149D01*
X139601609Y-76301608D01*
X139581879Y-76275005D01*
X139564852Y-76246596D01*
X139550691Y-76216656D01*
X139539533Y-76185471D01*
X139531485Y-76153343D01*
X139526625Y-76120581D01*
X139525000Y-76087500D01*
X139525000Y-75412500D01*
X139526625Y-75379419D01*
X139531485Y-75346657D01*
X139539533Y-75314529D01*
X139550691Y-75283344D01*
X139564852Y-75253404D01*
X139581879Y-75224995D01*
X139601609Y-75198392D01*
X139623851Y-75173851D01*
X139648392Y-75151609D01*
X139674995Y-75131879D01*
X139703404Y-75114852D01*
X139733344Y-75100691D01*
X139764529Y-75089533D01*
X139796657Y-75081485D01*
X139829419Y-75076625D01*
X139862500Y-75075000D01*
X140637500Y-75075000D01*
X140670581Y-75076625D01*
X140670581Y-75076625D01*
G37*
D20*
X140250000Y-75750000D03*
G04 #@! TD*
D21*
G04 #@! TO.C,5V*
X143500000Y-71000000D03*
G04 #@! TD*
G04 #@! TO.C,D-*
X136250000Y-71000000D03*
G04 #@! TD*
D22*
G04 #@! TO.C,J3*
X116500000Y-89250000D03*
D19*
G36*
X116500000Y-90734924D02*
X115015076Y-89250000D01*
X116500000Y-87765076D01*
X117984924Y-89250000D01*
X116500000Y-90734924D01*
X116500000Y-90734924D01*
G37*
D22*
X118296051Y-91046051D03*
D23*
X118296051Y-91046051D02*
X118296051Y-91046051D01*
D22*
X120092102Y-92842102D03*
D23*
X120092102Y-92842102D02*
X120092102Y-92842102D01*
D22*
X121888154Y-94638154D03*
D23*
X121888154Y-94638154D02*
X121888154Y-94638154D01*
D22*
X123684205Y-96434205D03*
D23*
X123684205Y-96434205D02*
X123684205Y-96434205D01*
G04 #@! TD*
D21*
G04 #@! TO.C,D+*
X130250000Y-71000000D03*
G04 #@! TD*
G04 #@! TO.C,GND*
X124250000Y-71000000D03*
G04 #@! TD*
G04 #@! TO.C,L+*
X182250000Y-81500000D03*
G04 #@! TD*
G04 #@! TO.C,L-*
X176250000Y-81500000D03*
G04 #@! TD*
G04 #@! TO.C,R-*
X173000000Y-71250000D03*
G04 #@! TD*
G04 #@! TO.C,R+*
X167000000Y-71250000D03*
G04 #@! TD*
D24*
G04 #@! TO.C,Reset*
X117250000Y-84975000D03*
X117250000Y-77025000D03*
X121750000Y-84975000D03*
X121750000Y-77025000D03*
G04 #@! TD*
D25*
G04 #@! TO.C,U2*
X133250000Y-88350000D03*
X133750000Y-88350000D03*
X134250000Y-88350000D03*
X134750000Y-88350000D03*
X135250000Y-88350000D03*
X135750000Y-88350000D03*
X136250000Y-88350000D03*
X136750000Y-88350000D03*
X137250000Y-88350000D03*
X137750000Y-88350000D03*
X138250000Y-88350000D03*
X138750000Y-88350000D03*
D26*
X140350000Y-86750000D03*
X140350000Y-86250000D03*
X140350000Y-85750000D03*
X140350000Y-85250000D03*
X140350000Y-84750000D03*
X140350000Y-84250000D03*
X140350000Y-83750000D03*
X140350000Y-83250000D03*
X140350000Y-82750000D03*
X140350000Y-82250000D03*
X140350000Y-81750000D03*
X140350000Y-81250000D03*
D25*
X138750000Y-79650000D03*
X138250000Y-79650000D03*
X137750000Y-79650000D03*
X137250000Y-79650000D03*
X136750000Y-79650000D03*
X136250000Y-79650000D03*
X135750000Y-79650000D03*
X135250000Y-79650000D03*
X134750000Y-79650000D03*
X134250000Y-79650000D03*
X133750000Y-79650000D03*
X133250000Y-79650000D03*
D26*
X131650000Y-81250000D03*
X131650000Y-81750000D03*
X131650000Y-82250000D03*
X131650000Y-82750000D03*
X131650000Y-83250000D03*
X131650000Y-83750000D03*
X131650000Y-84250000D03*
X131650000Y-84750000D03*
X131650000Y-85250000D03*
X131650000Y-85750000D03*
X131650000Y-86250000D03*
X131650000Y-86750000D03*
G04 #@! TD*
D27*
G04 #@! TO.C,U3*
X148600000Y-93751116D03*
X148600000Y-92801116D03*
X148600000Y-91851116D03*
X146400000Y-91851116D03*
X146400000Y-93751116D03*
G04 #@! TD*
D28*
G04 #@! TO.C,Y1*
X132000000Y-92700000D03*
X132000000Y-94800000D03*
G04 #@! TD*
D29*
G04 #@! TO.C,MH1*
X183000000Y-122000000D03*
G04 #@! TD*
G04 #@! TO.C,MH2*
X183000000Y-71000000D03*
G04 #@! TD*
G04 #@! TO.C,MH3*
X116000000Y-71000000D03*
G04 #@! TD*
D19*
G04 #@! TO.C,C1*
G36*
X117920581Y-115303703D02*
X117953343Y-115308563D01*
X117985471Y-115316611D01*
X118016656Y-115327769D01*
X118046596Y-115341930D01*
X118075005Y-115358957D01*
X118101608Y-115378687D01*
X118126149Y-115400929D01*
X118148391Y-115425470D01*
X118168121Y-115452073D01*
X118185148Y-115480482D01*
X118199309Y-115510422D01*
X118210467Y-115541607D01*
X118218515Y-115573735D01*
X118223375Y-115606497D01*
X118225000Y-115639578D01*
X118225000Y-116314578D01*
X118223375Y-116347659D01*
X118218515Y-116380421D01*
X118210467Y-116412549D01*
X118199309Y-116443734D01*
X118185148Y-116473674D01*
X118168121Y-116502083D01*
X118148391Y-116528686D01*
X118126149Y-116553227D01*
X118101608Y-116575469D01*
X118075005Y-116595199D01*
X118046596Y-116612226D01*
X118016656Y-116626387D01*
X117985471Y-116637545D01*
X117953343Y-116645593D01*
X117920581Y-116650453D01*
X117887500Y-116652078D01*
X117112500Y-116652078D01*
X117079419Y-116650453D01*
X117046657Y-116645593D01*
X117014529Y-116637545D01*
X116983344Y-116626387D01*
X116953404Y-116612226D01*
X116924995Y-116595199D01*
X116898392Y-116575469D01*
X116873851Y-116553227D01*
X116851609Y-116528686D01*
X116831879Y-116502083D01*
X116814852Y-116473674D01*
X116800691Y-116443734D01*
X116789533Y-116412549D01*
X116781485Y-116380421D01*
X116776625Y-116347659D01*
X116775000Y-116314578D01*
X116775000Y-115639578D01*
X116776625Y-115606497D01*
X116781485Y-115573735D01*
X116789533Y-115541607D01*
X116800691Y-115510422D01*
X116814852Y-115480482D01*
X116831879Y-115452073D01*
X116851609Y-115425470D01*
X116873851Y-115400929D01*
X116898392Y-115378687D01*
X116924995Y-115358957D01*
X116953404Y-115341930D01*
X116983344Y-115327769D01*
X117014529Y-115316611D01*
X117046657Y-115308563D01*
X117079419Y-115303703D01*
X117112500Y-115302078D01*
X117887500Y-115302078D01*
X117920581Y-115303703D01*
X117920581Y-115303703D01*
G37*
D20*
X117500000Y-115977078D03*
D19*
G36*
X116170581Y-115303703D02*
X116203343Y-115308563D01*
X116235471Y-115316611D01*
X116266656Y-115327769D01*
X116296596Y-115341930D01*
X116325005Y-115358957D01*
X116351608Y-115378687D01*
X116376149Y-115400929D01*
X116398391Y-115425470D01*
X116418121Y-115452073D01*
X116435148Y-115480482D01*
X116449309Y-115510422D01*
X116460467Y-115541607D01*
X116468515Y-115573735D01*
X116473375Y-115606497D01*
X116475000Y-115639578D01*
X116475000Y-116314578D01*
X116473375Y-116347659D01*
X116468515Y-116380421D01*
X116460467Y-116412549D01*
X116449309Y-116443734D01*
X116435148Y-116473674D01*
X116418121Y-116502083D01*
X116398391Y-116528686D01*
X116376149Y-116553227D01*
X116351608Y-116575469D01*
X116325005Y-116595199D01*
X116296596Y-116612226D01*
X116266656Y-116626387D01*
X116235471Y-116637545D01*
X116203343Y-116645593D01*
X116170581Y-116650453D01*
X116137500Y-116652078D01*
X115362500Y-116652078D01*
X115329419Y-116650453D01*
X115296657Y-116645593D01*
X115264529Y-116637545D01*
X115233344Y-116626387D01*
X115203404Y-116612226D01*
X115174995Y-116595199D01*
X115148392Y-116575469D01*
X115123851Y-116553227D01*
X115101609Y-116528686D01*
X115081879Y-116502083D01*
X115064852Y-116473674D01*
X115050691Y-116443734D01*
X115039533Y-116412549D01*
X115031485Y-116380421D01*
X115026625Y-116347659D01*
X115025000Y-116314578D01*
X115025000Y-115639578D01*
X115026625Y-115606497D01*
X115031485Y-115573735D01*
X115039533Y-115541607D01*
X115050691Y-115510422D01*
X115064852Y-115480482D01*
X115081879Y-115452073D01*
X115101609Y-115425470D01*
X115123851Y-115400929D01*
X115148392Y-115378687D01*
X115174995Y-115358957D01*
X115203404Y-115341930D01*
X115233344Y-115327769D01*
X115264529Y-115316611D01*
X115296657Y-115308563D01*
X115329419Y-115303703D01*
X115362500Y-115302078D01*
X116137500Y-115302078D01*
X116170581Y-115303703D01*
X116170581Y-115303703D01*
G37*
D20*
X115750000Y-115977078D03*
G04 #@! TD*
D19*
G04 #@! TO.C,C4*
G36*
X128060581Y-94076625D02*
X128093343Y-94081485D01*
X128125471Y-94089533D01*
X128156656Y-94100691D01*
X128186596Y-94114852D01*
X128215005Y-94131879D01*
X128241608Y-94151609D01*
X128266149Y-94173851D01*
X128288391Y-94198392D01*
X128308121Y-94224995D01*
X128325148Y-94253404D01*
X128339309Y-94283344D01*
X128350467Y-94314529D01*
X128358515Y-94346657D01*
X128363375Y-94379419D01*
X128365000Y-94412500D01*
X128365000Y-95087500D01*
X128363375Y-95120581D01*
X128358515Y-95153343D01*
X128350467Y-95185471D01*
X128339309Y-95216656D01*
X128325148Y-95246596D01*
X128308121Y-95275005D01*
X128288391Y-95301608D01*
X128266149Y-95326149D01*
X128241608Y-95348391D01*
X128215005Y-95368121D01*
X128186596Y-95385148D01*
X128156656Y-95399309D01*
X128125471Y-95410467D01*
X128093343Y-95418515D01*
X128060581Y-95423375D01*
X128027500Y-95425000D01*
X127252500Y-95425000D01*
X127219419Y-95423375D01*
X127186657Y-95418515D01*
X127154529Y-95410467D01*
X127123344Y-95399309D01*
X127093404Y-95385148D01*
X127064995Y-95368121D01*
X127038392Y-95348391D01*
X127013851Y-95326149D01*
X126991609Y-95301608D01*
X126971879Y-95275005D01*
X126954852Y-95246596D01*
X126940691Y-95216656D01*
X126929533Y-95185471D01*
X126921485Y-95153343D01*
X126916625Y-95120581D01*
X126915000Y-95087500D01*
X126915000Y-94412500D01*
X126916625Y-94379419D01*
X126921485Y-94346657D01*
X126929533Y-94314529D01*
X126940691Y-94283344D01*
X126954852Y-94253404D01*
X126971879Y-94224995D01*
X126991609Y-94198392D01*
X127013851Y-94173851D01*
X127038392Y-94151609D01*
X127064995Y-94131879D01*
X127093404Y-94114852D01*
X127123344Y-94100691D01*
X127154529Y-94089533D01*
X127186657Y-94081485D01*
X127219419Y-94076625D01*
X127252500Y-94075000D01*
X128027500Y-94075000D01*
X128060581Y-94076625D01*
X128060581Y-94076625D01*
G37*
D20*
X127640000Y-94750000D03*
D19*
G36*
X129810581Y-94076625D02*
X129843343Y-94081485D01*
X129875471Y-94089533D01*
X129906656Y-94100691D01*
X129936596Y-94114852D01*
X129965005Y-94131879D01*
X129991608Y-94151609D01*
X130016149Y-94173851D01*
X130038391Y-94198392D01*
X130058121Y-94224995D01*
X130075148Y-94253404D01*
X130089309Y-94283344D01*
X130100467Y-94314529D01*
X130108515Y-94346657D01*
X130113375Y-94379419D01*
X130115000Y-94412500D01*
X130115000Y-95087500D01*
X130113375Y-95120581D01*
X130108515Y-95153343D01*
X130100467Y-95185471D01*
X130089309Y-95216656D01*
X130075148Y-95246596D01*
X130058121Y-95275005D01*
X130038391Y-95301608D01*
X130016149Y-95326149D01*
X129991608Y-95348391D01*
X129965005Y-95368121D01*
X129936596Y-95385148D01*
X129906656Y-95399309D01*
X129875471Y-95410467D01*
X129843343Y-95418515D01*
X129810581Y-95423375D01*
X129777500Y-95425000D01*
X129002500Y-95425000D01*
X128969419Y-95423375D01*
X128936657Y-95418515D01*
X128904529Y-95410467D01*
X128873344Y-95399309D01*
X128843404Y-95385148D01*
X128814995Y-95368121D01*
X128788392Y-95348391D01*
X128763851Y-95326149D01*
X128741609Y-95301608D01*
X128721879Y-95275005D01*
X128704852Y-95246596D01*
X128690691Y-95216656D01*
X128679533Y-95185471D01*
X128671485Y-95153343D01*
X128666625Y-95120581D01*
X128665000Y-95087500D01*
X128665000Y-94412500D01*
X128666625Y-94379419D01*
X128671485Y-94346657D01*
X128679533Y-94314529D01*
X128690691Y-94283344D01*
X128704852Y-94253404D01*
X128721879Y-94224995D01*
X128741609Y-94198392D01*
X128763851Y-94173851D01*
X128788392Y-94151609D01*
X128814995Y-94131879D01*
X128843404Y-94114852D01*
X128873344Y-94100691D01*
X128904529Y-94089533D01*
X128936657Y-94081485D01*
X128969419Y-94076625D01*
X129002500Y-94075000D01*
X129777500Y-94075000D01*
X129810581Y-94076625D01*
X129810581Y-94076625D01*
G37*
D20*
X129390000Y-94750000D03*
G04 #@! TD*
D19*
G04 #@! TO.C,C5*
G36*
X129810581Y-92076625D02*
X129843343Y-92081485D01*
X129875471Y-92089533D01*
X129906656Y-92100691D01*
X129936596Y-92114852D01*
X129965005Y-92131879D01*
X129991608Y-92151609D01*
X130016149Y-92173851D01*
X130038391Y-92198392D01*
X130058121Y-92224995D01*
X130075148Y-92253404D01*
X130089309Y-92283344D01*
X130100467Y-92314529D01*
X130108515Y-92346657D01*
X130113375Y-92379419D01*
X130115000Y-92412500D01*
X130115000Y-93087500D01*
X130113375Y-93120581D01*
X130108515Y-93153343D01*
X130100467Y-93185471D01*
X130089309Y-93216656D01*
X130075148Y-93246596D01*
X130058121Y-93275005D01*
X130038391Y-93301608D01*
X130016149Y-93326149D01*
X129991608Y-93348391D01*
X129965005Y-93368121D01*
X129936596Y-93385148D01*
X129906656Y-93399309D01*
X129875471Y-93410467D01*
X129843343Y-93418515D01*
X129810581Y-93423375D01*
X129777500Y-93425000D01*
X129002500Y-93425000D01*
X128969419Y-93423375D01*
X128936657Y-93418515D01*
X128904529Y-93410467D01*
X128873344Y-93399309D01*
X128843404Y-93385148D01*
X128814995Y-93368121D01*
X128788392Y-93348391D01*
X128763851Y-93326149D01*
X128741609Y-93301608D01*
X128721879Y-93275005D01*
X128704852Y-93246596D01*
X128690691Y-93216656D01*
X128679533Y-93185471D01*
X128671485Y-93153343D01*
X128666625Y-93120581D01*
X128665000Y-93087500D01*
X128665000Y-92412500D01*
X128666625Y-92379419D01*
X128671485Y-92346657D01*
X128679533Y-92314529D01*
X128690691Y-92283344D01*
X128704852Y-92253404D01*
X128721879Y-92224995D01*
X128741609Y-92198392D01*
X128763851Y-92173851D01*
X128788392Y-92151609D01*
X128814995Y-92131879D01*
X128843404Y-92114852D01*
X128873344Y-92100691D01*
X128904529Y-92089533D01*
X128936657Y-92081485D01*
X128969419Y-92076625D01*
X129002500Y-92075000D01*
X129777500Y-92075000D01*
X129810581Y-92076625D01*
X129810581Y-92076625D01*
G37*
D20*
X129390000Y-92750000D03*
D19*
G36*
X128060581Y-92076625D02*
X128093343Y-92081485D01*
X128125471Y-92089533D01*
X128156656Y-92100691D01*
X128186596Y-92114852D01*
X128215005Y-92131879D01*
X128241608Y-92151609D01*
X128266149Y-92173851D01*
X128288391Y-92198392D01*
X128308121Y-92224995D01*
X128325148Y-92253404D01*
X128339309Y-92283344D01*
X128350467Y-92314529D01*
X128358515Y-92346657D01*
X128363375Y-92379419D01*
X128365000Y-92412500D01*
X128365000Y-93087500D01*
X128363375Y-93120581D01*
X128358515Y-93153343D01*
X128350467Y-93185471D01*
X128339309Y-93216656D01*
X128325148Y-93246596D01*
X128308121Y-93275005D01*
X128288391Y-93301608D01*
X128266149Y-93326149D01*
X128241608Y-93348391D01*
X128215005Y-93368121D01*
X128186596Y-93385148D01*
X128156656Y-93399309D01*
X128125471Y-93410467D01*
X128093343Y-93418515D01*
X128060581Y-93423375D01*
X128027500Y-93425000D01*
X127252500Y-93425000D01*
X127219419Y-93423375D01*
X127186657Y-93418515D01*
X127154529Y-93410467D01*
X127123344Y-93399309D01*
X127093404Y-93385148D01*
X127064995Y-93368121D01*
X127038392Y-93348391D01*
X127013851Y-93326149D01*
X126991609Y-93301608D01*
X126971879Y-93275005D01*
X126954852Y-93246596D01*
X126940691Y-93216656D01*
X126929533Y-93185471D01*
X126921485Y-93153343D01*
X126916625Y-93120581D01*
X126915000Y-93087500D01*
X126915000Y-92412500D01*
X126916625Y-92379419D01*
X126921485Y-92346657D01*
X126929533Y-92314529D01*
X126940691Y-92283344D01*
X126954852Y-92253404D01*
X126971879Y-92224995D01*
X126991609Y-92198392D01*
X127013851Y-92173851D01*
X127038392Y-92151609D01*
X127064995Y-92131879D01*
X127093404Y-92114852D01*
X127123344Y-92100691D01*
X127154529Y-92089533D01*
X127186657Y-92081485D01*
X127219419Y-92076625D01*
X127252500Y-92075000D01*
X128027500Y-92075000D01*
X128060581Y-92076625D01*
X128060581Y-92076625D01*
G37*
D20*
X127640000Y-92750000D03*
G04 #@! TD*
D19*
G04 #@! TO.C,C8*
G36*
X144370581Y-85151625D02*
X144403343Y-85156485D01*
X144435471Y-85164533D01*
X144466656Y-85175691D01*
X144496596Y-85189852D01*
X144525005Y-85206879D01*
X144551608Y-85226609D01*
X144576149Y-85248851D01*
X144598391Y-85273392D01*
X144618121Y-85299995D01*
X144635148Y-85328404D01*
X144649309Y-85358344D01*
X144660467Y-85389529D01*
X144668515Y-85421657D01*
X144673375Y-85454419D01*
X144675000Y-85487500D01*
X144675000Y-86262500D01*
X144673375Y-86295581D01*
X144668515Y-86328343D01*
X144660467Y-86360471D01*
X144649309Y-86391656D01*
X144635148Y-86421596D01*
X144618121Y-86450005D01*
X144598391Y-86476608D01*
X144576149Y-86501149D01*
X144551608Y-86523391D01*
X144525005Y-86543121D01*
X144496596Y-86560148D01*
X144466656Y-86574309D01*
X144435471Y-86585467D01*
X144403343Y-86593515D01*
X144370581Y-86598375D01*
X144337500Y-86600000D01*
X143662500Y-86600000D01*
X143629419Y-86598375D01*
X143596657Y-86593515D01*
X143564529Y-86585467D01*
X143533344Y-86574309D01*
X143503404Y-86560148D01*
X143474995Y-86543121D01*
X143448392Y-86523391D01*
X143423851Y-86501149D01*
X143401609Y-86476608D01*
X143381879Y-86450005D01*
X143364852Y-86421596D01*
X143350691Y-86391656D01*
X143339533Y-86360471D01*
X143331485Y-86328343D01*
X143326625Y-86295581D01*
X143325000Y-86262500D01*
X143325000Y-85487500D01*
X143326625Y-85454419D01*
X143331485Y-85421657D01*
X143339533Y-85389529D01*
X143350691Y-85358344D01*
X143364852Y-85328404D01*
X143381879Y-85299995D01*
X143401609Y-85273392D01*
X143423851Y-85248851D01*
X143448392Y-85226609D01*
X143474995Y-85206879D01*
X143503404Y-85189852D01*
X143533344Y-85175691D01*
X143564529Y-85164533D01*
X143596657Y-85156485D01*
X143629419Y-85151625D01*
X143662500Y-85150000D01*
X144337500Y-85150000D01*
X144370581Y-85151625D01*
X144370581Y-85151625D01*
G37*
D20*
X144000000Y-85875000D03*
D19*
G36*
X144370581Y-86901625D02*
X144403343Y-86906485D01*
X144435471Y-86914533D01*
X144466656Y-86925691D01*
X144496596Y-86939852D01*
X144525005Y-86956879D01*
X144551608Y-86976609D01*
X144576149Y-86998851D01*
X144598391Y-87023392D01*
X144618121Y-87049995D01*
X144635148Y-87078404D01*
X144649309Y-87108344D01*
X144660467Y-87139529D01*
X144668515Y-87171657D01*
X144673375Y-87204419D01*
X144675000Y-87237500D01*
X144675000Y-88012500D01*
X144673375Y-88045581D01*
X144668515Y-88078343D01*
X144660467Y-88110471D01*
X144649309Y-88141656D01*
X144635148Y-88171596D01*
X144618121Y-88200005D01*
X144598391Y-88226608D01*
X144576149Y-88251149D01*
X144551608Y-88273391D01*
X144525005Y-88293121D01*
X144496596Y-88310148D01*
X144466656Y-88324309D01*
X144435471Y-88335467D01*
X144403343Y-88343515D01*
X144370581Y-88348375D01*
X144337500Y-88350000D01*
X143662500Y-88350000D01*
X143629419Y-88348375D01*
X143596657Y-88343515D01*
X143564529Y-88335467D01*
X143533344Y-88324309D01*
X143503404Y-88310148D01*
X143474995Y-88293121D01*
X143448392Y-88273391D01*
X143423851Y-88251149D01*
X143401609Y-88226608D01*
X143381879Y-88200005D01*
X143364852Y-88171596D01*
X143350691Y-88141656D01*
X143339533Y-88110471D01*
X143331485Y-88078343D01*
X143326625Y-88045581D01*
X143325000Y-88012500D01*
X143325000Y-87237500D01*
X143326625Y-87204419D01*
X143331485Y-87171657D01*
X143339533Y-87139529D01*
X143350691Y-87108344D01*
X143364852Y-87078404D01*
X143381879Y-87049995D01*
X143401609Y-87023392D01*
X143423851Y-86998851D01*
X143448392Y-86976609D01*
X143474995Y-86956879D01*
X143503404Y-86939852D01*
X143533344Y-86925691D01*
X143564529Y-86914533D01*
X143596657Y-86906485D01*
X143629419Y-86901625D01*
X143662500Y-86900000D01*
X144337500Y-86900000D01*
X144370581Y-86901625D01*
X144370581Y-86901625D01*
G37*
D20*
X144000000Y-87625000D03*
G04 #@! TD*
D19*
G04 #@! TO.C,C9*
G36*
X161870581Y-85151625D02*
X161903343Y-85156485D01*
X161935471Y-85164533D01*
X161966656Y-85175691D01*
X161996596Y-85189852D01*
X162025005Y-85206879D01*
X162051608Y-85226609D01*
X162076149Y-85248851D01*
X162098391Y-85273392D01*
X162118121Y-85299995D01*
X162135148Y-85328404D01*
X162149309Y-85358344D01*
X162160467Y-85389529D01*
X162168515Y-85421657D01*
X162173375Y-85454419D01*
X162175000Y-85487500D01*
X162175000Y-86262500D01*
X162173375Y-86295581D01*
X162168515Y-86328343D01*
X162160467Y-86360471D01*
X162149309Y-86391656D01*
X162135148Y-86421596D01*
X162118121Y-86450005D01*
X162098391Y-86476608D01*
X162076149Y-86501149D01*
X162051608Y-86523391D01*
X162025005Y-86543121D01*
X161996596Y-86560148D01*
X161966656Y-86574309D01*
X161935471Y-86585467D01*
X161903343Y-86593515D01*
X161870581Y-86598375D01*
X161837500Y-86600000D01*
X161162500Y-86600000D01*
X161129419Y-86598375D01*
X161096657Y-86593515D01*
X161064529Y-86585467D01*
X161033344Y-86574309D01*
X161003404Y-86560148D01*
X160974995Y-86543121D01*
X160948392Y-86523391D01*
X160923851Y-86501149D01*
X160901609Y-86476608D01*
X160881879Y-86450005D01*
X160864852Y-86421596D01*
X160850691Y-86391656D01*
X160839533Y-86360471D01*
X160831485Y-86328343D01*
X160826625Y-86295581D01*
X160825000Y-86262500D01*
X160825000Y-85487500D01*
X160826625Y-85454419D01*
X160831485Y-85421657D01*
X160839533Y-85389529D01*
X160850691Y-85358344D01*
X160864852Y-85328404D01*
X160881879Y-85299995D01*
X160901609Y-85273392D01*
X160923851Y-85248851D01*
X160948392Y-85226609D01*
X160974995Y-85206879D01*
X161003404Y-85189852D01*
X161033344Y-85175691D01*
X161064529Y-85164533D01*
X161096657Y-85156485D01*
X161129419Y-85151625D01*
X161162500Y-85150000D01*
X161837500Y-85150000D01*
X161870581Y-85151625D01*
X161870581Y-85151625D01*
G37*
D20*
X161500000Y-85875000D03*
D19*
G36*
X161870581Y-83401625D02*
X161903343Y-83406485D01*
X161935471Y-83414533D01*
X161966656Y-83425691D01*
X161996596Y-83439852D01*
X162025005Y-83456879D01*
X162051608Y-83476609D01*
X162076149Y-83498851D01*
X162098391Y-83523392D01*
X162118121Y-83549995D01*
X162135148Y-83578404D01*
X162149309Y-83608344D01*
X162160467Y-83639529D01*
X162168515Y-83671657D01*
X162173375Y-83704419D01*
X162175000Y-83737500D01*
X162175000Y-84512500D01*
X162173375Y-84545581D01*
X162168515Y-84578343D01*
X162160467Y-84610471D01*
X162149309Y-84641656D01*
X162135148Y-84671596D01*
X162118121Y-84700005D01*
X162098391Y-84726608D01*
X162076149Y-84751149D01*
X162051608Y-84773391D01*
X162025005Y-84793121D01*
X161996596Y-84810148D01*
X161966656Y-84824309D01*
X161935471Y-84835467D01*
X161903343Y-84843515D01*
X161870581Y-84848375D01*
X161837500Y-84850000D01*
X161162500Y-84850000D01*
X161129419Y-84848375D01*
X161096657Y-84843515D01*
X161064529Y-84835467D01*
X161033344Y-84824309D01*
X161003404Y-84810148D01*
X160974995Y-84793121D01*
X160948392Y-84773391D01*
X160923851Y-84751149D01*
X160901609Y-84726608D01*
X160881879Y-84700005D01*
X160864852Y-84671596D01*
X160850691Y-84641656D01*
X160839533Y-84610471D01*
X160831485Y-84578343D01*
X160826625Y-84545581D01*
X160825000Y-84512500D01*
X160825000Y-83737500D01*
X160826625Y-83704419D01*
X160831485Y-83671657D01*
X160839533Y-83639529D01*
X160850691Y-83608344D01*
X160864852Y-83578404D01*
X160881879Y-83549995D01*
X160901609Y-83523392D01*
X160923851Y-83498851D01*
X160948392Y-83476609D01*
X160974995Y-83456879D01*
X161003404Y-83439852D01*
X161033344Y-83425691D01*
X161064529Y-83414533D01*
X161096657Y-83406485D01*
X161129419Y-83401625D01*
X161162500Y-83400000D01*
X161837500Y-83400000D01*
X161870581Y-83401625D01*
X161870581Y-83401625D01*
G37*
D20*
X161500000Y-84125000D03*
G04 #@! TD*
D19*
G04 #@! TO.C,C10*
G36*
X165795581Y-85326625D02*
X165828343Y-85331485D01*
X165860471Y-85339533D01*
X165891656Y-85350691D01*
X165921596Y-85364852D01*
X165950005Y-85381879D01*
X165976608Y-85401609D01*
X166001149Y-85423851D01*
X166023391Y-85448392D01*
X166043121Y-85474995D01*
X166060148Y-85503404D01*
X166074309Y-85533344D01*
X166085467Y-85564529D01*
X166093515Y-85596657D01*
X166098375Y-85629419D01*
X166100000Y-85662500D01*
X166100000Y-86337500D01*
X166098375Y-86370581D01*
X166093515Y-86403343D01*
X166085467Y-86435471D01*
X166074309Y-86466656D01*
X166060148Y-86496596D01*
X166043121Y-86525005D01*
X166023391Y-86551608D01*
X166001149Y-86576149D01*
X165976608Y-86598391D01*
X165950005Y-86618121D01*
X165921596Y-86635148D01*
X165891656Y-86649309D01*
X165860471Y-86660467D01*
X165828343Y-86668515D01*
X165795581Y-86673375D01*
X165762500Y-86675000D01*
X164987500Y-86675000D01*
X164954419Y-86673375D01*
X164921657Y-86668515D01*
X164889529Y-86660467D01*
X164858344Y-86649309D01*
X164828404Y-86635148D01*
X164799995Y-86618121D01*
X164773392Y-86598391D01*
X164748851Y-86576149D01*
X164726609Y-86551608D01*
X164706879Y-86525005D01*
X164689852Y-86496596D01*
X164675691Y-86466656D01*
X164664533Y-86435471D01*
X164656485Y-86403343D01*
X164651625Y-86370581D01*
X164650000Y-86337500D01*
X164650000Y-85662500D01*
X164651625Y-85629419D01*
X164656485Y-85596657D01*
X164664533Y-85564529D01*
X164675691Y-85533344D01*
X164689852Y-85503404D01*
X164706879Y-85474995D01*
X164726609Y-85448392D01*
X164748851Y-85423851D01*
X164773392Y-85401609D01*
X164799995Y-85381879D01*
X164828404Y-85364852D01*
X164858344Y-85350691D01*
X164889529Y-85339533D01*
X164921657Y-85331485D01*
X164954419Y-85326625D01*
X164987500Y-85325000D01*
X165762500Y-85325000D01*
X165795581Y-85326625D01*
X165795581Y-85326625D01*
G37*
D20*
X165375000Y-86000000D03*
D19*
G36*
X164045581Y-85326625D02*
X164078343Y-85331485D01*
X164110471Y-85339533D01*
X164141656Y-85350691D01*
X164171596Y-85364852D01*
X164200005Y-85381879D01*
X164226608Y-85401609D01*
X164251149Y-85423851D01*
X164273391Y-85448392D01*
X164293121Y-85474995D01*
X164310148Y-85503404D01*
X164324309Y-85533344D01*
X164335467Y-85564529D01*
X164343515Y-85596657D01*
X164348375Y-85629419D01*
X164350000Y-85662500D01*
X164350000Y-86337500D01*
X164348375Y-86370581D01*
X164343515Y-86403343D01*
X164335467Y-86435471D01*
X164324309Y-86466656D01*
X164310148Y-86496596D01*
X164293121Y-86525005D01*
X164273391Y-86551608D01*
X164251149Y-86576149D01*
X164226608Y-86598391D01*
X164200005Y-86618121D01*
X164171596Y-86635148D01*
X164141656Y-86649309D01*
X164110471Y-86660467D01*
X164078343Y-86668515D01*
X164045581Y-86673375D01*
X164012500Y-86675000D01*
X163237500Y-86675000D01*
X163204419Y-86673375D01*
X163171657Y-86668515D01*
X163139529Y-86660467D01*
X163108344Y-86649309D01*
X163078404Y-86635148D01*
X163049995Y-86618121D01*
X163023392Y-86598391D01*
X162998851Y-86576149D01*
X162976609Y-86551608D01*
X162956879Y-86525005D01*
X162939852Y-86496596D01*
X162925691Y-86466656D01*
X162914533Y-86435471D01*
X162906485Y-86403343D01*
X162901625Y-86370581D01*
X162900000Y-86337500D01*
X162900000Y-85662500D01*
X162901625Y-85629419D01*
X162906485Y-85596657D01*
X162914533Y-85564529D01*
X162925691Y-85533344D01*
X162939852Y-85503404D01*
X162956879Y-85474995D01*
X162976609Y-85448392D01*
X162998851Y-85423851D01*
X163023392Y-85401609D01*
X163049995Y-85381879D01*
X163078404Y-85364852D01*
X163108344Y-85350691D01*
X163139529Y-85339533D01*
X163171657Y-85331485D01*
X163204419Y-85326625D01*
X163237500Y-85325000D01*
X164012500Y-85325000D01*
X164045581Y-85326625D01*
X164045581Y-85326625D01*
G37*
D20*
X163625000Y-86000000D03*
G04 #@! TD*
D19*
G04 #@! TO.C,C11*
G36*
X164045581Y-83326625D02*
X164078343Y-83331485D01*
X164110471Y-83339533D01*
X164141656Y-83350691D01*
X164171596Y-83364852D01*
X164200005Y-83381879D01*
X164226608Y-83401609D01*
X164251149Y-83423851D01*
X164273391Y-83448392D01*
X164293121Y-83474995D01*
X164310148Y-83503404D01*
X164324309Y-83533344D01*
X164335467Y-83564529D01*
X164343515Y-83596657D01*
X164348375Y-83629419D01*
X164350000Y-83662500D01*
X164350000Y-84337500D01*
X164348375Y-84370581D01*
X164343515Y-84403343D01*
X164335467Y-84435471D01*
X164324309Y-84466656D01*
X164310148Y-84496596D01*
X164293121Y-84525005D01*
X164273391Y-84551608D01*
X164251149Y-84576149D01*
X164226608Y-84598391D01*
X164200005Y-84618121D01*
X164171596Y-84635148D01*
X164141656Y-84649309D01*
X164110471Y-84660467D01*
X164078343Y-84668515D01*
X164045581Y-84673375D01*
X164012500Y-84675000D01*
X163237500Y-84675000D01*
X163204419Y-84673375D01*
X163171657Y-84668515D01*
X163139529Y-84660467D01*
X163108344Y-84649309D01*
X163078404Y-84635148D01*
X163049995Y-84618121D01*
X163023392Y-84598391D01*
X162998851Y-84576149D01*
X162976609Y-84551608D01*
X162956879Y-84525005D01*
X162939852Y-84496596D01*
X162925691Y-84466656D01*
X162914533Y-84435471D01*
X162906485Y-84403343D01*
X162901625Y-84370581D01*
X162900000Y-84337500D01*
X162900000Y-83662500D01*
X162901625Y-83629419D01*
X162906485Y-83596657D01*
X162914533Y-83564529D01*
X162925691Y-83533344D01*
X162939852Y-83503404D01*
X162956879Y-83474995D01*
X162976609Y-83448392D01*
X162998851Y-83423851D01*
X163023392Y-83401609D01*
X163049995Y-83381879D01*
X163078404Y-83364852D01*
X163108344Y-83350691D01*
X163139529Y-83339533D01*
X163171657Y-83331485D01*
X163204419Y-83326625D01*
X163237500Y-83325000D01*
X164012500Y-83325000D01*
X164045581Y-83326625D01*
X164045581Y-83326625D01*
G37*
D20*
X163625000Y-84000000D03*
D19*
G36*
X165795581Y-83326625D02*
X165828343Y-83331485D01*
X165860471Y-83339533D01*
X165891656Y-83350691D01*
X165921596Y-83364852D01*
X165950005Y-83381879D01*
X165976608Y-83401609D01*
X166001149Y-83423851D01*
X166023391Y-83448392D01*
X166043121Y-83474995D01*
X166060148Y-83503404D01*
X166074309Y-83533344D01*
X166085467Y-83564529D01*
X166093515Y-83596657D01*
X166098375Y-83629419D01*
X166100000Y-83662500D01*
X166100000Y-84337500D01*
X166098375Y-84370581D01*
X166093515Y-84403343D01*
X166085467Y-84435471D01*
X166074309Y-84466656D01*
X166060148Y-84496596D01*
X166043121Y-84525005D01*
X166023391Y-84551608D01*
X166001149Y-84576149D01*
X165976608Y-84598391D01*
X165950005Y-84618121D01*
X165921596Y-84635148D01*
X165891656Y-84649309D01*
X165860471Y-84660467D01*
X165828343Y-84668515D01*
X165795581Y-84673375D01*
X165762500Y-84675000D01*
X164987500Y-84675000D01*
X164954419Y-84673375D01*
X164921657Y-84668515D01*
X164889529Y-84660467D01*
X164858344Y-84649309D01*
X164828404Y-84635148D01*
X164799995Y-84618121D01*
X164773392Y-84598391D01*
X164748851Y-84576149D01*
X164726609Y-84551608D01*
X164706879Y-84525005D01*
X164689852Y-84496596D01*
X164675691Y-84466656D01*
X164664533Y-84435471D01*
X164656485Y-84403343D01*
X164651625Y-84370581D01*
X164650000Y-84337500D01*
X164650000Y-83662500D01*
X164651625Y-83629419D01*
X164656485Y-83596657D01*
X164664533Y-83564529D01*
X164675691Y-83533344D01*
X164689852Y-83503404D01*
X164706879Y-83474995D01*
X164726609Y-83448392D01*
X164748851Y-83423851D01*
X164773392Y-83401609D01*
X164799995Y-83381879D01*
X164828404Y-83364852D01*
X164858344Y-83350691D01*
X164889529Y-83339533D01*
X164921657Y-83331485D01*
X164954419Y-83326625D01*
X164987500Y-83325000D01*
X165762500Y-83325000D01*
X165795581Y-83326625D01*
X165795581Y-83326625D01*
G37*
D20*
X165375000Y-84000000D03*
G04 #@! TD*
D19*
G04 #@! TO.C,C14*
G36*
X126045581Y-80826625D02*
X126078343Y-80831485D01*
X126110471Y-80839533D01*
X126141656Y-80850691D01*
X126171596Y-80864852D01*
X126200005Y-80881879D01*
X126226608Y-80901609D01*
X126251149Y-80923851D01*
X126273391Y-80948392D01*
X126293121Y-80974995D01*
X126310148Y-81003404D01*
X126324309Y-81033344D01*
X126335467Y-81064529D01*
X126343515Y-81096657D01*
X126348375Y-81129419D01*
X126350000Y-81162500D01*
X126350000Y-81837500D01*
X126348375Y-81870581D01*
X126343515Y-81903343D01*
X126335467Y-81935471D01*
X126324309Y-81966656D01*
X126310148Y-81996596D01*
X126293121Y-82025005D01*
X126273391Y-82051608D01*
X126251149Y-82076149D01*
X126226608Y-82098391D01*
X126200005Y-82118121D01*
X126171596Y-82135148D01*
X126141656Y-82149309D01*
X126110471Y-82160467D01*
X126078343Y-82168515D01*
X126045581Y-82173375D01*
X126012500Y-82175000D01*
X125237500Y-82175000D01*
X125204419Y-82173375D01*
X125171657Y-82168515D01*
X125139529Y-82160467D01*
X125108344Y-82149309D01*
X125078404Y-82135148D01*
X125049995Y-82118121D01*
X125023392Y-82098391D01*
X124998851Y-82076149D01*
X124976609Y-82051608D01*
X124956879Y-82025005D01*
X124939852Y-81996596D01*
X124925691Y-81966656D01*
X124914533Y-81935471D01*
X124906485Y-81903343D01*
X124901625Y-81870581D01*
X124900000Y-81837500D01*
X124900000Y-81162500D01*
X124901625Y-81129419D01*
X124906485Y-81096657D01*
X124914533Y-81064529D01*
X124925691Y-81033344D01*
X124939852Y-81003404D01*
X124956879Y-80974995D01*
X124976609Y-80948392D01*
X124998851Y-80923851D01*
X125023392Y-80901609D01*
X125049995Y-80881879D01*
X125078404Y-80864852D01*
X125108344Y-80850691D01*
X125139529Y-80839533D01*
X125171657Y-80831485D01*
X125204419Y-80826625D01*
X125237500Y-80825000D01*
X126012500Y-80825000D01*
X126045581Y-80826625D01*
X126045581Y-80826625D01*
G37*
D20*
X125625000Y-81500000D03*
D19*
G36*
X127795581Y-80826625D02*
X127828343Y-80831485D01*
X127860471Y-80839533D01*
X127891656Y-80850691D01*
X127921596Y-80864852D01*
X127950005Y-80881879D01*
X127976608Y-80901609D01*
X128001149Y-80923851D01*
X128023391Y-80948392D01*
X128043121Y-80974995D01*
X128060148Y-81003404D01*
X128074309Y-81033344D01*
X128085467Y-81064529D01*
X128093515Y-81096657D01*
X128098375Y-81129419D01*
X128100000Y-81162500D01*
X128100000Y-81837500D01*
X128098375Y-81870581D01*
X128093515Y-81903343D01*
X128085467Y-81935471D01*
X128074309Y-81966656D01*
X128060148Y-81996596D01*
X128043121Y-82025005D01*
X128023391Y-82051608D01*
X128001149Y-82076149D01*
X127976608Y-82098391D01*
X127950005Y-82118121D01*
X127921596Y-82135148D01*
X127891656Y-82149309D01*
X127860471Y-82160467D01*
X127828343Y-82168515D01*
X127795581Y-82173375D01*
X127762500Y-82175000D01*
X126987500Y-82175000D01*
X126954419Y-82173375D01*
X126921657Y-82168515D01*
X126889529Y-82160467D01*
X126858344Y-82149309D01*
X126828404Y-82135148D01*
X126799995Y-82118121D01*
X126773392Y-82098391D01*
X126748851Y-82076149D01*
X126726609Y-82051608D01*
X126706879Y-82025005D01*
X126689852Y-81996596D01*
X126675691Y-81966656D01*
X126664533Y-81935471D01*
X126656485Y-81903343D01*
X126651625Y-81870581D01*
X126650000Y-81837500D01*
X126650000Y-81162500D01*
X126651625Y-81129419D01*
X126656485Y-81096657D01*
X126664533Y-81064529D01*
X126675691Y-81033344D01*
X126689852Y-81003404D01*
X126706879Y-80974995D01*
X126726609Y-80948392D01*
X126748851Y-80923851D01*
X126773392Y-80901609D01*
X126799995Y-80881879D01*
X126828404Y-80864852D01*
X126858344Y-80850691D01*
X126889529Y-80839533D01*
X126921657Y-80831485D01*
X126954419Y-80826625D01*
X126987500Y-80825000D01*
X127762500Y-80825000D01*
X127795581Y-80826625D01*
X127795581Y-80826625D01*
G37*
D20*
X127375000Y-81500000D03*
G04 #@! TD*
D19*
G04 #@! TO.C,C15*
G36*
X157120581Y-91232701D02*
X157153343Y-91237561D01*
X157185471Y-91245609D01*
X157216656Y-91256767D01*
X157246596Y-91270928D01*
X157275005Y-91287955D01*
X157301608Y-91307685D01*
X157326149Y-91329927D01*
X157348391Y-91354468D01*
X157368121Y-91381071D01*
X157385148Y-91409480D01*
X157399309Y-91439420D01*
X157410467Y-91470605D01*
X157418515Y-91502733D01*
X157423375Y-91535495D01*
X157425000Y-91568576D01*
X157425000Y-92343576D01*
X157423375Y-92376657D01*
X157418515Y-92409419D01*
X157410467Y-92441547D01*
X157399309Y-92472732D01*
X157385148Y-92502672D01*
X157368121Y-92531081D01*
X157348391Y-92557684D01*
X157326149Y-92582225D01*
X157301608Y-92604467D01*
X157275005Y-92624197D01*
X157246596Y-92641224D01*
X157216656Y-92655385D01*
X157185471Y-92666543D01*
X157153343Y-92674591D01*
X157120581Y-92679451D01*
X157087500Y-92681076D01*
X156412500Y-92681076D01*
X156379419Y-92679451D01*
X156346657Y-92674591D01*
X156314529Y-92666543D01*
X156283344Y-92655385D01*
X156253404Y-92641224D01*
X156224995Y-92624197D01*
X156198392Y-92604467D01*
X156173851Y-92582225D01*
X156151609Y-92557684D01*
X156131879Y-92531081D01*
X156114852Y-92502672D01*
X156100691Y-92472732D01*
X156089533Y-92441547D01*
X156081485Y-92409419D01*
X156076625Y-92376657D01*
X156075000Y-92343576D01*
X156075000Y-91568576D01*
X156076625Y-91535495D01*
X156081485Y-91502733D01*
X156089533Y-91470605D01*
X156100691Y-91439420D01*
X156114852Y-91409480D01*
X156131879Y-91381071D01*
X156151609Y-91354468D01*
X156173851Y-91329927D01*
X156198392Y-91307685D01*
X156224995Y-91287955D01*
X156253404Y-91270928D01*
X156283344Y-91256767D01*
X156314529Y-91245609D01*
X156346657Y-91237561D01*
X156379419Y-91232701D01*
X156412500Y-91231076D01*
X157087500Y-91231076D01*
X157120581Y-91232701D01*
X157120581Y-91232701D01*
G37*
D20*
X156750000Y-91956076D03*
D19*
G36*
X157120581Y-89482701D02*
X157153343Y-89487561D01*
X157185471Y-89495609D01*
X157216656Y-89506767D01*
X157246596Y-89520928D01*
X157275005Y-89537955D01*
X157301608Y-89557685D01*
X157326149Y-89579927D01*
X157348391Y-89604468D01*
X157368121Y-89631071D01*
X157385148Y-89659480D01*
X157399309Y-89689420D01*
X157410467Y-89720605D01*
X157418515Y-89752733D01*
X157423375Y-89785495D01*
X157425000Y-89818576D01*
X157425000Y-90593576D01*
X157423375Y-90626657D01*
X157418515Y-90659419D01*
X157410467Y-90691547D01*
X157399309Y-90722732D01*
X157385148Y-90752672D01*
X157368121Y-90781081D01*
X157348391Y-90807684D01*
X157326149Y-90832225D01*
X157301608Y-90854467D01*
X157275005Y-90874197D01*
X157246596Y-90891224D01*
X157216656Y-90905385D01*
X157185471Y-90916543D01*
X157153343Y-90924591D01*
X157120581Y-90929451D01*
X157087500Y-90931076D01*
X156412500Y-90931076D01*
X156379419Y-90929451D01*
X156346657Y-90924591D01*
X156314529Y-90916543D01*
X156283344Y-90905385D01*
X156253404Y-90891224D01*
X156224995Y-90874197D01*
X156198392Y-90854467D01*
X156173851Y-90832225D01*
X156151609Y-90807684D01*
X156131879Y-90781081D01*
X156114852Y-90752672D01*
X156100691Y-90722732D01*
X156089533Y-90691547D01*
X156081485Y-90659419D01*
X156076625Y-90626657D01*
X156075000Y-90593576D01*
X156075000Y-89818576D01*
X156076625Y-89785495D01*
X156081485Y-89752733D01*
X156089533Y-89720605D01*
X156100691Y-89689420D01*
X156114852Y-89659480D01*
X156131879Y-89631071D01*
X156151609Y-89604468D01*
X156173851Y-89579927D01*
X156198392Y-89557685D01*
X156224995Y-89537955D01*
X156253404Y-89520928D01*
X156283344Y-89506767D01*
X156314529Y-89495609D01*
X156346657Y-89487561D01*
X156379419Y-89482701D01*
X156412500Y-89481076D01*
X157087500Y-89481076D01*
X157120581Y-89482701D01*
X157120581Y-89482701D01*
G37*
D20*
X156750000Y-90206076D03*
G04 #@! TD*
D19*
G04 #@! TO.C,C16*
G36*
X165795581Y-95326625D02*
X165828343Y-95331485D01*
X165860471Y-95339533D01*
X165891656Y-95350691D01*
X165921596Y-95364852D01*
X165950005Y-95381879D01*
X165976608Y-95401609D01*
X166001149Y-95423851D01*
X166023391Y-95448392D01*
X166043121Y-95474995D01*
X166060148Y-95503404D01*
X166074309Y-95533344D01*
X166085467Y-95564529D01*
X166093515Y-95596657D01*
X166098375Y-95629419D01*
X166100000Y-95662500D01*
X166100000Y-96337500D01*
X166098375Y-96370581D01*
X166093515Y-96403343D01*
X166085467Y-96435471D01*
X166074309Y-96466656D01*
X166060148Y-96496596D01*
X166043121Y-96525005D01*
X166023391Y-96551608D01*
X166001149Y-96576149D01*
X165976608Y-96598391D01*
X165950005Y-96618121D01*
X165921596Y-96635148D01*
X165891656Y-96649309D01*
X165860471Y-96660467D01*
X165828343Y-96668515D01*
X165795581Y-96673375D01*
X165762500Y-96675000D01*
X164987500Y-96675000D01*
X164954419Y-96673375D01*
X164921657Y-96668515D01*
X164889529Y-96660467D01*
X164858344Y-96649309D01*
X164828404Y-96635148D01*
X164799995Y-96618121D01*
X164773392Y-96598391D01*
X164748851Y-96576149D01*
X164726609Y-96551608D01*
X164706879Y-96525005D01*
X164689852Y-96496596D01*
X164675691Y-96466656D01*
X164664533Y-96435471D01*
X164656485Y-96403343D01*
X164651625Y-96370581D01*
X164650000Y-96337500D01*
X164650000Y-95662500D01*
X164651625Y-95629419D01*
X164656485Y-95596657D01*
X164664533Y-95564529D01*
X164675691Y-95533344D01*
X164689852Y-95503404D01*
X164706879Y-95474995D01*
X164726609Y-95448392D01*
X164748851Y-95423851D01*
X164773392Y-95401609D01*
X164799995Y-95381879D01*
X164828404Y-95364852D01*
X164858344Y-95350691D01*
X164889529Y-95339533D01*
X164921657Y-95331485D01*
X164954419Y-95326625D01*
X164987500Y-95325000D01*
X165762500Y-95325000D01*
X165795581Y-95326625D01*
X165795581Y-95326625D01*
G37*
D20*
X165375000Y-96000000D03*
D19*
G36*
X164045581Y-95326625D02*
X164078343Y-95331485D01*
X164110471Y-95339533D01*
X164141656Y-95350691D01*
X164171596Y-95364852D01*
X164200005Y-95381879D01*
X164226608Y-95401609D01*
X164251149Y-95423851D01*
X164273391Y-95448392D01*
X164293121Y-95474995D01*
X164310148Y-95503404D01*
X164324309Y-95533344D01*
X164335467Y-95564529D01*
X164343515Y-95596657D01*
X164348375Y-95629419D01*
X164350000Y-95662500D01*
X164350000Y-96337500D01*
X164348375Y-96370581D01*
X164343515Y-96403343D01*
X164335467Y-96435471D01*
X164324309Y-96466656D01*
X164310148Y-96496596D01*
X164293121Y-96525005D01*
X164273391Y-96551608D01*
X164251149Y-96576149D01*
X164226608Y-96598391D01*
X164200005Y-96618121D01*
X164171596Y-96635148D01*
X164141656Y-96649309D01*
X164110471Y-96660467D01*
X164078343Y-96668515D01*
X164045581Y-96673375D01*
X164012500Y-96675000D01*
X163237500Y-96675000D01*
X163204419Y-96673375D01*
X163171657Y-96668515D01*
X163139529Y-96660467D01*
X163108344Y-96649309D01*
X163078404Y-96635148D01*
X163049995Y-96618121D01*
X163023392Y-96598391D01*
X162998851Y-96576149D01*
X162976609Y-96551608D01*
X162956879Y-96525005D01*
X162939852Y-96496596D01*
X162925691Y-96466656D01*
X162914533Y-96435471D01*
X162906485Y-96403343D01*
X162901625Y-96370581D01*
X162900000Y-96337500D01*
X162900000Y-95662500D01*
X162901625Y-95629419D01*
X162906485Y-95596657D01*
X162914533Y-95564529D01*
X162925691Y-95533344D01*
X162939852Y-95503404D01*
X162956879Y-95474995D01*
X162976609Y-95448392D01*
X162998851Y-95423851D01*
X163023392Y-95401609D01*
X163049995Y-95381879D01*
X163078404Y-95364852D01*
X163108344Y-95350691D01*
X163139529Y-95339533D01*
X163171657Y-95331485D01*
X163204419Y-95326625D01*
X163237500Y-95325000D01*
X164012500Y-95325000D01*
X164045581Y-95326625D01*
X164045581Y-95326625D01*
G37*
D20*
X163625000Y-96000000D03*
G04 #@! TD*
D19*
G04 #@! TO.C,C17*
G36*
X164045581Y-97326625D02*
X164078343Y-97331485D01*
X164110471Y-97339533D01*
X164141656Y-97350691D01*
X164171596Y-97364852D01*
X164200005Y-97381879D01*
X164226608Y-97401609D01*
X164251149Y-97423851D01*
X164273391Y-97448392D01*
X164293121Y-97474995D01*
X164310148Y-97503404D01*
X164324309Y-97533344D01*
X164335467Y-97564529D01*
X164343515Y-97596657D01*
X164348375Y-97629419D01*
X164350000Y-97662500D01*
X164350000Y-98337500D01*
X164348375Y-98370581D01*
X164343515Y-98403343D01*
X164335467Y-98435471D01*
X164324309Y-98466656D01*
X164310148Y-98496596D01*
X164293121Y-98525005D01*
X164273391Y-98551608D01*
X164251149Y-98576149D01*
X164226608Y-98598391D01*
X164200005Y-98618121D01*
X164171596Y-98635148D01*
X164141656Y-98649309D01*
X164110471Y-98660467D01*
X164078343Y-98668515D01*
X164045581Y-98673375D01*
X164012500Y-98675000D01*
X163237500Y-98675000D01*
X163204419Y-98673375D01*
X163171657Y-98668515D01*
X163139529Y-98660467D01*
X163108344Y-98649309D01*
X163078404Y-98635148D01*
X163049995Y-98618121D01*
X163023392Y-98598391D01*
X162998851Y-98576149D01*
X162976609Y-98551608D01*
X162956879Y-98525005D01*
X162939852Y-98496596D01*
X162925691Y-98466656D01*
X162914533Y-98435471D01*
X162906485Y-98403343D01*
X162901625Y-98370581D01*
X162900000Y-98337500D01*
X162900000Y-97662500D01*
X162901625Y-97629419D01*
X162906485Y-97596657D01*
X162914533Y-97564529D01*
X162925691Y-97533344D01*
X162939852Y-97503404D01*
X162956879Y-97474995D01*
X162976609Y-97448392D01*
X162998851Y-97423851D01*
X163023392Y-97401609D01*
X163049995Y-97381879D01*
X163078404Y-97364852D01*
X163108344Y-97350691D01*
X163139529Y-97339533D01*
X163171657Y-97331485D01*
X163204419Y-97326625D01*
X163237500Y-97325000D01*
X164012500Y-97325000D01*
X164045581Y-97326625D01*
X164045581Y-97326625D01*
G37*
D20*
X163625000Y-98000000D03*
D19*
G36*
X165795581Y-97326625D02*
X165828343Y-97331485D01*
X165860471Y-97339533D01*
X165891656Y-97350691D01*
X165921596Y-97364852D01*
X165950005Y-97381879D01*
X165976608Y-97401609D01*
X166001149Y-97423851D01*
X166023391Y-97448392D01*
X166043121Y-97474995D01*
X166060148Y-97503404D01*
X166074309Y-97533344D01*
X166085467Y-97564529D01*
X166093515Y-97596657D01*
X166098375Y-97629419D01*
X166100000Y-97662500D01*
X166100000Y-98337500D01*
X166098375Y-98370581D01*
X166093515Y-98403343D01*
X166085467Y-98435471D01*
X166074309Y-98466656D01*
X166060148Y-98496596D01*
X166043121Y-98525005D01*
X166023391Y-98551608D01*
X166001149Y-98576149D01*
X165976608Y-98598391D01*
X165950005Y-98618121D01*
X165921596Y-98635148D01*
X165891656Y-98649309D01*
X165860471Y-98660467D01*
X165828343Y-98668515D01*
X165795581Y-98673375D01*
X165762500Y-98675000D01*
X164987500Y-98675000D01*
X164954419Y-98673375D01*
X164921657Y-98668515D01*
X164889529Y-98660467D01*
X164858344Y-98649309D01*
X164828404Y-98635148D01*
X164799995Y-98618121D01*
X164773392Y-98598391D01*
X164748851Y-98576149D01*
X164726609Y-98551608D01*
X164706879Y-98525005D01*
X164689852Y-98496596D01*
X164675691Y-98466656D01*
X164664533Y-98435471D01*
X164656485Y-98403343D01*
X164651625Y-98370581D01*
X164650000Y-98337500D01*
X164650000Y-97662500D01*
X164651625Y-97629419D01*
X164656485Y-97596657D01*
X164664533Y-97564529D01*
X164675691Y-97533344D01*
X164689852Y-97503404D01*
X164706879Y-97474995D01*
X164726609Y-97448392D01*
X164748851Y-97423851D01*
X164773392Y-97401609D01*
X164799995Y-97381879D01*
X164828404Y-97364852D01*
X164858344Y-97350691D01*
X164889529Y-97339533D01*
X164921657Y-97331485D01*
X164954419Y-97326625D01*
X164987500Y-97325000D01*
X165762500Y-97325000D01*
X165795581Y-97326625D01*
X165795581Y-97326625D01*
G37*
D20*
X165375000Y-98000000D03*
G04 #@! TD*
D19*
G04 #@! TO.C,R1*
G36*
X118620581Y-121128703D02*
X118653343Y-121133563D01*
X118685471Y-121141611D01*
X118716656Y-121152769D01*
X118746596Y-121166930D01*
X118775005Y-121183957D01*
X118801608Y-121203687D01*
X118826149Y-121225929D01*
X118848391Y-121250470D01*
X118868121Y-121277073D01*
X118885148Y-121305482D01*
X118899309Y-121335422D01*
X118910467Y-121366607D01*
X118918515Y-121398735D01*
X118923375Y-121431497D01*
X118925000Y-121464578D01*
X118925000Y-122239578D01*
X118923375Y-122272659D01*
X118918515Y-122305421D01*
X118910467Y-122337549D01*
X118899309Y-122368734D01*
X118885148Y-122398674D01*
X118868121Y-122427083D01*
X118848391Y-122453686D01*
X118826149Y-122478227D01*
X118801608Y-122500469D01*
X118775005Y-122520199D01*
X118746596Y-122537226D01*
X118716656Y-122551387D01*
X118685471Y-122562545D01*
X118653343Y-122570593D01*
X118620581Y-122575453D01*
X118587500Y-122577078D01*
X117912500Y-122577078D01*
X117879419Y-122575453D01*
X117846657Y-122570593D01*
X117814529Y-122562545D01*
X117783344Y-122551387D01*
X117753404Y-122537226D01*
X117724995Y-122520199D01*
X117698392Y-122500469D01*
X117673851Y-122478227D01*
X117651609Y-122453686D01*
X117631879Y-122427083D01*
X117614852Y-122398674D01*
X117600691Y-122368734D01*
X117589533Y-122337549D01*
X117581485Y-122305421D01*
X117576625Y-122272659D01*
X117575000Y-122239578D01*
X117575000Y-121464578D01*
X117576625Y-121431497D01*
X117581485Y-121398735D01*
X117589533Y-121366607D01*
X117600691Y-121335422D01*
X117614852Y-121305482D01*
X117631879Y-121277073D01*
X117651609Y-121250470D01*
X117673851Y-121225929D01*
X117698392Y-121203687D01*
X117724995Y-121183957D01*
X117753404Y-121166930D01*
X117783344Y-121152769D01*
X117814529Y-121141611D01*
X117846657Y-121133563D01*
X117879419Y-121128703D01*
X117912500Y-121127078D01*
X118587500Y-121127078D01*
X118620581Y-121128703D01*
X118620581Y-121128703D01*
G37*
D20*
X118250000Y-121852078D03*
D19*
G36*
X118620581Y-119378703D02*
X118653343Y-119383563D01*
X118685471Y-119391611D01*
X118716656Y-119402769D01*
X118746596Y-119416930D01*
X118775005Y-119433957D01*
X118801608Y-119453687D01*
X118826149Y-119475929D01*
X118848391Y-119500470D01*
X118868121Y-119527073D01*
X118885148Y-119555482D01*
X118899309Y-119585422D01*
X118910467Y-119616607D01*
X118918515Y-119648735D01*
X118923375Y-119681497D01*
X118925000Y-119714578D01*
X118925000Y-120489578D01*
X118923375Y-120522659D01*
X118918515Y-120555421D01*
X118910467Y-120587549D01*
X118899309Y-120618734D01*
X118885148Y-120648674D01*
X118868121Y-120677083D01*
X118848391Y-120703686D01*
X118826149Y-120728227D01*
X118801608Y-120750469D01*
X118775005Y-120770199D01*
X118746596Y-120787226D01*
X118716656Y-120801387D01*
X118685471Y-120812545D01*
X118653343Y-120820593D01*
X118620581Y-120825453D01*
X118587500Y-120827078D01*
X117912500Y-120827078D01*
X117879419Y-120825453D01*
X117846657Y-120820593D01*
X117814529Y-120812545D01*
X117783344Y-120801387D01*
X117753404Y-120787226D01*
X117724995Y-120770199D01*
X117698392Y-120750469D01*
X117673851Y-120728227D01*
X117651609Y-120703686D01*
X117631879Y-120677083D01*
X117614852Y-120648674D01*
X117600691Y-120618734D01*
X117589533Y-120587549D01*
X117581485Y-120555421D01*
X117576625Y-120522659D01*
X117575000Y-120489578D01*
X117575000Y-119714578D01*
X117576625Y-119681497D01*
X117581485Y-119648735D01*
X117589533Y-119616607D01*
X117600691Y-119585422D01*
X117614852Y-119555482D01*
X117631879Y-119527073D01*
X117651609Y-119500470D01*
X117673851Y-119475929D01*
X117698392Y-119453687D01*
X117724995Y-119433957D01*
X117753404Y-119416930D01*
X117783344Y-119402769D01*
X117814529Y-119391611D01*
X117846657Y-119383563D01*
X117879419Y-119378703D01*
X117912500Y-119377078D01*
X118587500Y-119377078D01*
X118620581Y-119378703D01*
X118620581Y-119378703D01*
G37*
D20*
X118250000Y-120102078D03*
G04 #@! TD*
D19*
G04 #@! TO.C,R2*
G36*
X117920581Y-113326625D02*
X117953343Y-113331485D01*
X117985471Y-113339533D01*
X118016656Y-113350691D01*
X118046596Y-113364852D01*
X118075005Y-113381879D01*
X118101608Y-113401609D01*
X118126149Y-113423851D01*
X118148391Y-113448392D01*
X118168121Y-113474995D01*
X118185148Y-113503404D01*
X118199309Y-113533344D01*
X118210467Y-113564529D01*
X118218515Y-113596657D01*
X118223375Y-113629419D01*
X118225000Y-113662500D01*
X118225000Y-114337500D01*
X118223375Y-114370581D01*
X118218515Y-114403343D01*
X118210467Y-114435471D01*
X118199309Y-114466656D01*
X118185148Y-114496596D01*
X118168121Y-114525005D01*
X118148391Y-114551608D01*
X118126149Y-114576149D01*
X118101608Y-114598391D01*
X118075005Y-114618121D01*
X118046596Y-114635148D01*
X118016656Y-114649309D01*
X117985471Y-114660467D01*
X117953343Y-114668515D01*
X117920581Y-114673375D01*
X117887500Y-114675000D01*
X117112500Y-114675000D01*
X117079419Y-114673375D01*
X117046657Y-114668515D01*
X117014529Y-114660467D01*
X116983344Y-114649309D01*
X116953404Y-114635148D01*
X116924995Y-114618121D01*
X116898392Y-114598391D01*
X116873851Y-114576149D01*
X116851609Y-114551608D01*
X116831879Y-114525005D01*
X116814852Y-114496596D01*
X116800691Y-114466656D01*
X116789533Y-114435471D01*
X116781485Y-114403343D01*
X116776625Y-114370581D01*
X116775000Y-114337500D01*
X116775000Y-113662500D01*
X116776625Y-113629419D01*
X116781485Y-113596657D01*
X116789533Y-113564529D01*
X116800691Y-113533344D01*
X116814852Y-113503404D01*
X116831879Y-113474995D01*
X116851609Y-113448392D01*
X116873851Y-113423851D01*
X116898392Y-113401609D01*
X116924995Y-113381879D01*
X116953404Y-113364852D01*
X116983344Y-113350691D01*
X117014529Y-113339533D01*
X117046657Y-113331485D01*
X117079419Y-113326625D01*
X117112500Y-113325000D01*
X117887500Y-113325000D01*
X117920581Y-113326625D01*
X117920581Y-113326625D01*
G37*
D20*
X117500000Y-114000000D03*
D19*
G36*
X116170581Y-113326625D02*
X116203343Y-113331485D01*
X116235471Y-113339533D01*
X116266656Y-113350691D01*
X116296596Y-113364852D01*
X116325005Y-113381879D01*
X116351608Y-113401609D01*
X116376149Y-113423851D01*
X116398391Y-113448392D01*
X116418121Y-113474995D01*
X116435148Y-113503404D01*
X116449309Y-113533344D01*
X116460467Y-113564529D01*
X116468515Y-113596657D01*
X116473375Y-113629419D01*
X116475000Y-113662500D01*
X116475000Y-114337500D01*
X116473375Y-114370581D01*
X116468515Y-114403343D01*
X116460467Y-114435471D01*
X116449309Y-114466656D01*
X116435148Y-114496596D01*
X116418121Y-114525005D01*
X116398391Y-114551608D01*
X116376149Y-114576149D01*
X116351608Y-114598391D01*
X116325005Y-114618121D01*
X116296596Y-114635148D01*
X116266656Y-114649309D01*
X116235471Y-114660467D01*
X116203343Y-114668515D01*
X116170581Y-114673375D01*
X116137500Y-114675000D01*
X115362500Y-114675000D01*
X115329419Y-114673375D01*
X115296657Y-114668515D01*
X115264529Y-114660467D01*
X115233344Y-114649309D01*
X115203404Y-114635148D01*
X115174995Y-114618121D01*
X115148392Y-114598391D01*
X115123851Y-114576149D01*
X115101609Y-114551608D01*
X115081879Y-114525005D01*
X115064852Y-114496596D01*
X115050691Y-114466656D01*
X115039533Y-114435471D01*
X115031485Y-114403343D01*
X115026625Y-114370581D01*
X115025000Y-114337500D01*
X115025000Y-113662500D01*
X115026625Y-113629419D01*
X115031485Y-113596657D01*
X115039533Y-113564529D01*
X115050691Y-113533344D01*
X115064852Y-113503404D01*
X115081879Y-113474995D01*
X115101609Y-113448392D01*
X115123851Y-113423851D01*
X115148392Y-113401609D01*
X115174995Y-113381879D01*
X115203404Y-113364852D01*
X115233344Y-113350691D01*
X115264529Y-113339533D01*
X115296657Y-113331485D01*
X115329419Y-113326625D01*
X115362500Y-113325000D01*
X116137500Y-113325000D01*
X116170581Y-113326625D01*
X116170581Y-113326625D01*
G37*
D20*
X115750000Y-114000000D03*
G04 #@! TD*
D19*
G04 #@! TO.C,R3*
G36*
X127770581Y-76901625D02*
X127803343Y-76906485D01*
X127835471Y-76914533D01*
X127866656Y-76925691D01*
X127896596Y-76939852D01*
X127925005Y-76956879D01*
X127951608Y-76976609D01*
X127976149Y-76998851D01*
X127998391Y-77023392D01*
X128018121Y-77049995D01*
X128035148Y-77078404D01*
X128049309Y-77108344D01*
X128060467Y-77139529D01*
X128068515Y-77171657D01*
X128073375Y-77204419D01*
X128075000Y-77237500D01*
X128075000Y-78012500D01*
X128073375Y-78045581D01*
X128068515Y-78078343D01*
X128060467Y-78110471D01*
X128049309Y-78141656D01*
X128035148Y-78171596D01*
X128018121Y-78200005D01*
X127998391Y-78226608D01*
X127976149Y-78251149D01*
X127951608Y-78273391D01*
X127925005Y-78293121D01*
X127896596Y-78310148D01*
X127866656Y-78324309D01*
X127835471Y-78335467D01*
X127803343Y-78343515D01*
X127770581Y-78348375D01*
X127737500Y-78350000D01*
X127062500Y-78350000D01*
X127029419Y-78348375D01*
X126996657Y-78343515D01*
X126964529Y-78335467D01*
X126933344Y-78324309D01*
X126903404Y-78310148D01*
X126874995Y-78293121D01*
X126848392Y-78273391D01*
X126823851Y-78251149D01*
X126801609Y-78226608D01*
X126781879Y-78200005D01*
X126764852Y-78171596D01*
X126750691Y-78141656D01*
X126739533Y-78110471D01*
X126731485Y-78078343D01*
X126726625Y-78045581D01*
X126725000Y-78012500D01*
X126725000Y-77237500D01*
X126726625Y-77204419D01*
X126731485Y-77171657D01*
X126739533Y-77139529D01*
X126750691Y-77108344D01*
X126764852Y-77078404D01*
X126781879Y-77049995D01*
X126801609Y-77023392D01*
X126823851Y-76998851D01*
X126848392Y-76976609D01*
X126874995Y-76956879D01*
X126903404Y-76939852D01*
X126933344Y-76925691D01*
X126964529Y-76914533D01*
X126996657Y-76906485D01*
X127029419Y-76901625D01*
X127062500Y-76900000D01*
X127737500Y-76900000D01*
X127770581Y-76901625D01*
X127770581Y-76901625D01*
G37*
D20*
X127400000Y-77625000D03*
D19*
G36*
X127770581Y-78651625D02*
X127803343Y-78656485D01*
X127835471Y-78664533D01*
X127866656Y-78675691D01*
X127896596Y-78689852D01*
X127925005Y-78706879D01*
X127951608Y-78726609D01*
X127976149Y-78748851D01*
X127998391Y-78773392D01*
X128018121Y-78799995D01*
X128035148Y-78828404D01*
X128049309Y-78858344D01*
X128060467Y-78889529D01*
X128068515Y-78921657D01*
X128073375Y-78954419D01*
X128075000Y-78987500D01*
X128075000Y-79762500D01*
X128073375Y-79795581D01*
X128068515Y-79828343D01*
X128060467Y-79860471D01*
X128049309Y-79891656D01*
X128035148Y-79921596D01*
X128018121Y-79950005D01*
X127998391Y-79976608D01*
X127976149Y-80001149D01*
X127951608Y-80023391D01*
X127925005Y-80043121D01*
X127896596Y-80060148D01*
X127866656Y-80074309D01*
X127835471Y-80085467D01*
X127803343Y-80093515D01*
X127770581Y-80098375D01*
X127737500Y-80100000D01*
X127062500Y-80100000D01*
X127029419Y-80098375D01*
X126996657Y-80093515D01*
X126964529Y-80085467D01*
X126933344Y-80074309D01*
X126903404Y-80060148D01*
X126874995Y-80043121D01*
X126848392Y-80023391D01*
X126823851Y-80001149D01*
X126801609Y-79976608D01*
X126781879Y-79950005D01*
X126764852Y-79921596D01*
X126750691Y-79891656D01*
X126739533Y-79860471D01*
X126731485Y-79828343D01*
X126726625Y-79795581D01*
X126725000Y-79762500D01*
X126725000Y-78987500D01*
X126726625Y-78954419D01*
X126731485Y-78921657D01*
X126739533Y-78889529D01*
X126750691Y-78858344D01*
X126764852Y-78828404D01*
X126781879Y-78799995D01*
X126801609Y-78773392D01*
X126823851Y-78748851D01*
X126848392Y-78726609D01*
X126874995Y-78706879D01*
X126903404Y-78689852D01*
X126933344Y-78675691D01*
X126964529Y-78664533D01*
X126996657Y-78656485D01*
X127029419Y-78651625D01*
X127062500Y-78650000D01*
X127737500Y-78650000D01*
X127770581Y-78651625D01*
X127770581Y-78651625D01*
G37*
D20*
X127400000Y-79375000D03*
G04 #@! TD*
D19*
G04 #@! TO.C,R4*
G36*
X144370581Y-76751625D02*
X144403343Y-76756485D01*
X144435471Y-76764533D01*
X144466656Y-76775691D01*
X144496596Y-76789852D01*
X144525005Y-76806879D01*
X144551608Y-76826609D01*
X144576149Y-76848851D01*
X144598391Y-76873392D01*
X144618121Y-76899995D01*
X144635148Y-76928404D01*
X144649309Y-76958344D01*
X144660467Y-76989529D01*
X144668515Y-77021657D01*
X144673375Y-77054419D01*
X144675000Y-77087500D01*
X144675000Y-77862500D01*
X144673375Y-77895581D01*
X144668515Y-77928343D01*
X144660467Y-77960471D01*
X144649309Y-77991656D01*
X144635148Y-78021596D01*
X144618121Y-78050005D01*
X144598391Y-78076608D01*
X144576149Y-78101149D01*
X144551608Y-78123391D01*
X144525005Y-78143121D01*
X144496596Y-78160148D01*
X144466656Y-78174309D01*
X144435471Y-78185467D01*
X144403343Y-78193515D01*
X144370581Y-78198375D01*
X144337500Y-78200000D01*
X143662500Y-78200000D01*
X143629419Y-78198375D01*
X143596657Y-78193515D01*
X143564529Y-78185467D01*
X143533344Y-78174309D01*
X143503404Y-78160148D01*
X143474995Y-78143121D01*
X143448392Y-78123391D01*
X143423851Y-78101149D01*
X143401609Y-78076608D01*
X143381879Y-78050005D01*
X143364852Y-78021596D01*
X143350691Y-77991656D01*
X143339533Y-77960471D01*
X143331485Y-77928343D01*
X143326625Y-77895581D01*
X143325000Y-77862500D01*
X143325000Y-77087500D01*
X143326625Y-77054419D01*
X143331485Y-77021657D01*
X143339533Y-76989529D01*
X143350691Y-76958344D01*
X143364852Y-76928404D01*
X143381879Y-76899995D01*
X143401609Y-76873392D01*
X143423851Y-76848851D01*
X143448392Y-76826609D01*
X143474995Y-76806879D01*
X143503404Y-76789852D01*
X143533344Y-76775691D01*
X143564529Y-76764533D01*
X143596657Y-76756485D01*
X143629419Y-76751625D01*
X143662500Y-76750000D01*
X144337500Y-76750000D01*
X144370581Y-76751625D01*
X144370581Y-76751625D01*
G37*
D20*
X144000000Y-77475000D03*
D19*
G36*
X144370581Y-75001625D02*
X144403343Y-75006485D01*
X144435471Y-75014533D01*
X144466656Y-75025691D01*
X144496596Y-75039852D01*
X144525005Y-75056879D01*
X144551608Y-75076609D01*
X144576149Y-75098851D01*
X144598391Y-75123392D01*
X144618121Y-75149995D01*
X144635148Y-75178404D01*
X144649309Y-75208344D01*
X144660467Y-75239529D01*
X144668515Y-75271657D01*
X144673375Y-75304419D01*
X144675000Y-75337500D01*
X144675000Y-76112500D01*
X144673375Y-76145581D01*
X144668515Y-76178343D01*
X144660467Y-76210471D01*
X144649309Y-76241656D01*
X144635148Y-76271596D01*
X144618121Y-76300005D01*
X144598391Y-76326608D01*
X144576149Y-76351149D01*
X144551608Y-76373391D01*
X144525005Y-76393121D01*
X144496596Y-76410148D01*
X144466656Y-76424309D01*
X144435471Y-76435467D01*
X144403343Y-76443515D01*
X144370581Y-76448375D01*
X144337500Y-76450000D01*
X143662500Y-76450000D01*
X143629419Y-76448375D01*
X143596657Y-76443515D01*
X143564529Y-76435467D01*
X143533344Y-76424309D01*
X143503404Y-76410148D01*
X143474995Y-76393121D01*
X143448392Y-76373391D01*
X143423851Y-76351149D01*
X143401609Y-76326608D01*
X143381879Y-76300005D01*
X143364852Y-76271596D01*
X143350691Y-76241656D01*
X143339533Y-76210471D01*
X143331485Y-76178343D01*
X143326625Y-76145581D01*
X143325000Y-76112500D01*
X143325000Y-75337500D01*
X143326625Y-75304419D01*
X143331485Y-75271657D01*
X143339533Y-75239529D01*
X143350691Y-75208344D01*
X143364852Y-75178404D01*
X143381879Y-75149995D01*
X143401609Y-75123392D01*
X143423851Y-75098851D01*
X143448392Y-75076609D01*
X143474995Y-75056879D01*
X143503404Y-75039852D01*
X143533344Y-75025691D01*
X143564529Y-75014533D01*
X143596657Y-75006485D01*
X143629419Y-75001625D01*
X143662500Y-75000000D01*
X144337500Y-75000000D01*
X144370581Y-75001625D01*
X144370581Y-75001625D01*
G37*
D20*
X144000000Y-75725000D03*
G04 #@! TD*
D19*
G04 #@! TO.C,R5*
G36*
X144370581Y-81151625D02*
X144403343Y-81156485D01*
X144435471Y-81164533D01*
X144466656Y-81175691D01*
X144496596Y-81189852D01*
X144525005Y-81206879D01*
X144551608Y-81226609D01*
X144576149Y-81248851D01*
X144598391Y-81273392D01*
X144618121Y-81299995D01*
X144635148Y-81328404D01*
X144649309Y-81358344D01*
X144660467Y-81389529D01*
X144668515Y-81421657D01*
X144673375Y-81454419D01*
X144675000Y-81487500D01*
X144675000Y-82262500D01*
X144673375Y-82295581D01*
X144668515Y-82328343D01*
X144660467Y-82360471D01*
X144649309Y-82391656D01*
X144635148Y-82421596D01*
X144618121Y-82450005D01*
X144598391Y-82476608D01*
X144576149Y-82501149D01*
X144551608Y-82523391D01*
X144525005Y-82543121D01*
X144496596Y-82560148D01*
X144466656Y-82574309D01*
X144435471Y-82585467D01*
X144403343Y-82593515D01*
X144370581Y-82598375D01*
X144337500Y-82600000D01*
X143662500Y-82600000D01*
X143629419Y-82598375D01*
X143596657Y-82593515D01*
X143564529Y-82585467D01*
X143533344Y-82574309D01*
X143503404Y-82560148D01*
X143474995Y-82543121D01*
X143448392Y-82523391D01*
X143423851Y-82501149D01*
X143401609Y-82476608D01*
X143381879Y-82450005D01*
X143364852Y-82421596D01*
X143350691Y-82391656D01*
X143339533Y-82360471D01*
X143331485Y-82328343D01*
X143326625Y-82295581D01*
X143325000Y-82262500D01*
X143325000Y-81487500D01*
X143326625Y-81454419D01*
X143331485Y-81421657D01*
X143339533Y-81389529D01*
X143350691Y-81358344D01*
X143364852Y-81328404D01*
X143381879Y-81299995D01*
X143401609Y-81273392D01*
X143423851Y-81248851D01*
X143448392Y-81226609D01*
X143474995Y-81206879D01*
X143503404Y-81189852D01*
X143533344Y-81175691D01*
X143564529Y-81164533D01*
X143596657Y-81156485D01*
X143629419Y-81151625D01*
X143662500Y-81150000D01*
X144337500Y-81150000D01*
X144370581Y-81151625D01*
X144370581Y-81151625D01*
G37*
D20*
X144000000Y-81875000D03*
D19*
G36*
X144370581Y-82901625D02*
X144403343Y-82906485D01*
X144435471Y-82914533D01*
X144466656Y-82925691D01*
X144496596Y-82939852D01*
X144525005Y-82956879D01*
X144551608Y-82976609D01*
X144576149Y-82998851D01*
X144598391Y-83023392D01*
X144618121Y-83049995D01*
X144635148Y-83078404D01*
X144649309Y-83108344D01*
X144660467Y-83139529D01*
X144668515Y-83171657D01*
X144673375Y-83204419D01*
X144675000Y-83237500D01*
X144675000Y-84012500D01*
X144673375Y-84045581D01*
X144668515Y-84078343D01*
X144660467Y-84110471D01*
X144649309Y-84141656D01*
X144635148Y-84171596D01*
X144618121Y-84200005D01*
X144598391Y-84226608D01*
X144576149Y-84251149D01*
X144551608Y-84273391D01*
X144525005Y-84293121D01*
X144496596Y-84310148D01*
X144466656Y-84324309D01*
X144435471Y-84335467D01*
X144403343Y-84343515D01*
X144370581Y-84348375D01*
X144337500Y-84350000D01*
X143662500Y-84350000D01*
X143629419Y-84348375D01*
X143596657Y-84343515D01*
X143564529Y-84335467D01*
X143533344Y-84324309D01*
X143503404Y-84310148D01*
X143474995Y-84293121D01*
X143448392Y-84273391D01*
X143423851Y-84251149D01*
X143401609Y-84226608D01*
X143381879Y-84200005D01*
X143364852Y-84171596D01*
X143350691Y-84141656D01*
X143339533Y-84110471D01*
X143331485Y-84078343D01*
X143326625Y-84045581D01*
X143325000Y-84012500D01*
X143325000Y-83237500D01*
X143326625Y-83204419D01*
X143331485Y-83171657D01*
X143339533Y-83139529D01*
X143350691Y-83108344D01*
X143364852Y-83078404D01*
X143381879Y-83049995D01*
X143401609Y-83023392D01*
X143423851Y-82998851D01*
X143448392Y-82976609D01*
X143474995Y-82956879D01*
X143503404Y-82939852D01*
X143533344Y-82925691D01*
X143564529Y-82914533D01*
X143596657Y-82906485D01*
X143629419Y-82901625D01*
X143662500Y-82900000D01*
X144337500Y-82900000D01*
X144370581Y-82901625D01*
X144370581Y-82901625D01*
G37*
D20*
X144000000Y-83625000D03*
G04 #@! TD*
D19*
G04 #@! TO.C,R6*
G36*
X149295581Y-80326625D02*
X149328343Y-80331485D01*
X149360471Y-80339533D01*
X149391656Y-80350691D01*
X149421596Y-80364852D01*
X149450005Y-80381879D01*
X149476608Y-80401609D01*
X149501149Y-80423851D01*
X149523391Y-80448392D01*
X149543121Y-80474995D01*
X149560148Y-80503404D01*
X149574309Y-80533344D01*
X149585467Y-80564529D01*
X149593515Y-80596657D01*
X149598375Y-80629419D01*
X149600000Y-80662500D01*
X149600000Y-81337500D01*
X149598375Y-81370581D01*
X149593515Y-81403343D01*
X149585467Y-81435471D01*
X149574309Y-81466656D01*
X149560148Y-81496596D01*
X149543121Y-81525005D01*
X149523391Y-81551608D01*
X149501149Y-81576149D01*
X149476608Y-81598391D01*
X149450005Y-81618121D01*
X149421596Y-81635148D01*
X149391656Y-81649309D01*
X149360471Y-81660467D01*
X149328343Y-81668515D01*
X149295581Y-81673375D01*
X149262500Y-81675000D01*
X148487500Y-81675000D01*
X148454419Y-81673375D01*
X148421657Y-81668515D01*
X148389529Y-81660467D01*
X148358344Y-81649309D01*
X148328404Y-81635148D01*
X148299995Y-81618121D01*
X148273392Y-81598391D01*
X148248851Y-81576149D01*
X148226609Y-81551608D01*
X148206879Y-81525005D01*
X148189852Y-81496596D01*
X148175691Y-81466656D01*
X148164533Y-81435471D01*
X148156485Y-81403343D01*
X148151625Y-81370581D01*
X148150000Y-81337500D01*
X148150000Y-80662500D01*
X148151625Y-80629419D01*
X148156485Y-80596657D01*
X148164533Y-80564529D01*
X148175691Y-80533344D01*
X148189852Y-80503404D01*
X148206879Y-80474995D01*
X148226609Y-80448392D01*
X148248851Y-80423851D01*
X148273392Y-80401609D01*
X148299995Y-80381879D01*
X148328404Y-80364852D01*
X148358344Y-80350691D01*
X148389529Y-80339533D01*
X148421657Y-80331485D01*
X148454419Y-80326625D01*
X148487500Y-80325000D01*
X149262500Y-80325000D01*
X149295581Y-80326625D01*
X149295581Y-80326625D01*
G37*
D20*
X148875000Y-81000000D03*
D19*
G36*
X151045581Y-80326625D02*
X151078343Y-80331485D01*
X151110471Y-80339533D01*
X151141656Y-80350691D01*
X151171596Y-80364852D01*
X151200005Y-80381879D01*
X151226608Y-80401609D01*
X151251149Y-80423851D01*
X151273391Y-80448392D01*
X151293121Y-80474995D01*
X151310148Y-80503404D01*
X151324309Y-80533344D01*
X151335467Y-80564529D01*
X151343515Y-80596657D01*
X151348375Y-80629419D01*
X151350000Y-80662500D01*
X151350000Y-81337500D01*
X151348375Y-81370581D01*
X151343515Y-81403343D01*
X151335467Y-81435471D01*
X151324309Y-81466656D01*
X151310148Y-81496596D01*
X151293121Y-81525005D01*
X151273391Y-81551608D01*
X151251149Y-81576149D01*
X151226608Y-81598391D01*
X151200005Y-81618121D01*
X151171596Y-81635148D01*
X151141656Y-81649309D01*
X151110471Y-81660467D01*
X151078343Y-81668515D01*
X151045581Y-81673375D01*
X151012500Y-81675000D01*
X150237500Y-81675000D01*
X150204419Y-81673375D01*
X150171657Y-81668515D01*
X150139529Y-81660467D01*
X150108344Y-81649309D01*
X150078404Y-81635148D01*
X150049995Y-81618121D01*
X150023392Y-81598391D01*
X149998851Y-81576149D01*
X149976609Y-81551608D01*
X149956879Y-81525005D01*
X149939852Y-81496596D01*
X149925691Y-81466656D01*
X149914533Y-81435471D01*
X149906485Y-81403343D01*
X149901625Y-81370581D01*
X149900000Y-81337500D01*
X149900000Y-80662500D01*
X149901625Y-80629419D01*
X149906485Y-80596657D01*
X149914533Y-80564529D01*
X149925691Y-80533344D01*
X149939852Y-80503404D01*
X149956879Y-80474995D01*
X149976609Y-80448392D01*
X149998851Y-80423851D01*
X150023392Y-80401609D01*
X150049995Y-80381879D01*
X150078404Y-80364852D01*
X150108344Y-80350691D01*
X150139529Y-80339533D01*
X150171657Y-80331485D01*
X150204419Y-80326625D01*
X150237500Y-80325000D01*
X151012500Y-80325000D01*
X151045581Y-80326625D01*
X151045581Y-80326625D01*
G37*
D20*
X150625000Y-81000000D03*
G04 #@! TD*
D19*
G04 #@! TO.C,R7*
G36*
X157780058Y-80326625D02*
X157812820Y-80331485D01*
X157844948Y-80339533D01*
X157876133Y-80350691D01*
X157906073Y-80364852D01*
X157934482Y-80381879D01*
X157961085Y-80401609D01*
X157985626Y-80423851D01*
X158007868Y-80448392D01*
X158027598Y-80474995D01*
X158044625Y-80503404D01*
X158058786Y-80533344D01*
X158069944Y-80564529D01*
X158077992Y-80596657D01*
X158082852Y-80629419D01*
X158084477Y-80662500D01*
X158084477Y-81337500D01*
X158082852Y-81370581D01*
X158077992Y-81403343D01*
X158069944Y-81435471D01*
X158058786Y-81466656D01*
X158044625Y-81496596D01*
X158027598Y-81525005D01*
X158007868Y-81551608D01*
X157985626Y-81576149D01*
X157961085Y-81598391D01*
X157934482Y-81618121D01*
X157906073Y-81635148D01*
X157876133Y-81649309D01*
X157844948Y-81660467D01*
X157812820Y-81668515D01*
X157780058Y-81673375D01*
X157746977Y-81675000D01*
X156971977Y-81675000D01*
X156938896Y-81673375D01*
X156906134Y-81668515D01*
X156874006Y-81660467D01*
X156842821Y-81649309D01*
X156812881Y-81635148D01*
X156784472Y-81618121D01*
X156757869Y-81598391D01*
X156733328Y-81576149D01*
X156711086Y-81551608D01*
X156691356Y-81525005D01*
X156674329Y-81496596D01*
X156660168Y-81466656D01*
X156649010Y-81435471D01*
X156640962Y-81403343D01*
X156636102Y-81370581D01*
X156634477Y-81337500D01*
X156634477Y-80662500D01*
X156636102Y-80629419D01*
X156640962Y-80596657D01*
X156649010Y-80564529D01*
X156660168Y-80533344D01*
X156674329Y-80503404D01*
X156691356Y-80474995D01*
X156711086Y-80448392D01*
X156733328Y-80423851D01*
X156757869Y-80401609D01*
X156784472Y-80381879D01*
X156812881Y-80364852D01*
X156842821Y-80350691D01*
X156874006Y-80339533D01*
X156906134Y-80331485D01*
X156938896Y-80326625D01*
X156971977Y-80325000D01*
X157746977Y-80325000D01*
X157780058Y-80326625D01*
X157780058Y-80326625D01*
G37*
D20*
X157359477Y-81000000D03*
D19*
G36*
X159530058Y-80326625D02*
X159562820Y-80331485D01*
X159594948Y-80339533D01*
X159626133Y-80350691D01*
X159656073Y-80364852D01*
X159684482Y-80381879D01*
X159711085Y-80401609D01*
X159735626Y-80423851D01*
X159757868Y-80448392D01*
X159777598Y-80474995D01*
X159794625Y-80503404D01*
X159808786Y-80533344D01*
X159819944Y-80564529D01*
X159827992Y-80596657D01*
X159832852Y-80629419D01*
X159834477Y-80662500D01*
X159834477Y-81337500D01*
X159832852Y-81370581D01*
X159827992Y-81403343D01*
X159819944Y-81435471D01*
X159808786Y-81466656D01*
X159794625Y-81496596D01*
X159777598Y-81525005D01*
X159757868Y-81551608D01*
X159735626Y-81576149D01*
X159711085Y-81598391D01*
X159684482Y-81618121D01*
X159656073Y-81635148D01*
X159626133Y-81649309D01*
X159594948Y-81660467D01*
X159562820Y-81668515D01*
X159530058Y-81673375D01*
X159496977Y-81675000D01*
X158721977Y-81675000D01*
X158688896Y-81673375D01*
X158656134Y-81668515D01*
X158624006Y-81660467D01*
X158592821Y-81649309D01*
X158562881Y-81635148D01*
X158534472Y-81618121D01*
X158507869Y-81598391D01*
X158483328Y-81576149D01*
X158461086Y-81551608D01*
X158441356Y-81525005D01*
X158424329Y-81496596D01*
X158410168Y-81466656D01*
X158399010Y-81435471D01*
X158390962Y-81403343D01*
X158386102Y-81370581D01*
X158384477Y-81337500D01*
X158384477Y-80662500D01*
X158386102Y-80629419D01*
X158390962Y-80596657D01*
X158399010Y-80564529D01*
X158410168Y-80533344D01*
X158424329Y-80503404D01*
X158441356Y-80474995D01*
X158461086Y-80448392D01*
X158483328Y-80423851D01*
X158507869Y-80401609D01*
X158534472Y-80381879D01*
X158562881Y-80364852D01*
X158592821Y-80350691D01*
X158624006Y-80339533D01*
X158656134Y-80331485D01*
X158688896Y-80326625D01*
X158721977Y-80325000D01*
X159496977Y-80325000D01*
X159530058Y-80326625D01*
X159530058Y-80326625D01*
G37*
D20*
X159109477Y-81000000D03*
G04 #@! TD*
D30*
G04 #@! TO.C,POT1*
X128000000Y-101000000D03*
X125500000Y-101000000D03*
X123000000Y-101000000D03*
D31*
X129900000Y-108000000D03*
X121100000Y-108000000D03*
G04 #@! TD*
G04 #@! TO.C,POT2*
X137100000Y-108000000D03*
X145900000Y-108000000D03*
D30*
X139000000Y-101000000D03*
X141500000Y-101000000D03*
X144000000Y-101000000D03*
G04 #@! TD*
G04 #@! TO.C,POT3*
X160000000Y-101000000D03*
X157500000Y-101000000D03*
X155000000Y-101000000D03*
D31*
X161900000Y-108000000D03*
X153100000Y-108000000D03*
G04 #@! TD*
G04 #@! TO.C,POT4*
X169100000Y-108000000D03*
X177900000Y-108000000D03*
D30*
X171000000Y-101000000D03*
X173500000Y-101000000D03*
X176000000Y-101000000D03*
G04 #@! TD*
D19*
G04 #@! TO.C,C20*
G36*
X149295581Y-82326625D02*
X149328343Y-82331485D01*
X149360471Y-82339533D01*
X149391656Y-82350691D01*
X149421596Y-82364852D01*
X149450005Y-82381879D01*
X149476608Y-82401609D01*
X149501149Y-82423851D01*
X149523391Y-82448392D01*
X149543121Y-82474995D01*
X149560148Y-82503404D01*
X149574309Y-82533344D01*
X149585467Y-82564529D01*
X149593515Y-82596657D01*
X149598375Y-82629419D01*
X149600000Y-82662500D01*
X149600000Y-83337500D01*
X149598375Y-83370581D01*
X149593515Y-83403343D01*
X149585467Y-83435471D01*
X149574309Y-83466656D01*
X149560148Y-83496596D01*
X149543121Y-83525005D01*
X149523391Y-83551608D01*
X149501149Y-83576149D01*
X149476608Y-83598391D01*
X149450005Y-83618121D01*
X149421596Y-83635148D01*
X149391656Y-83649309D01*
X149360471Y-83660467D01*
X149328343Y-83668515D01*
X149295581Y-83673375D01*
X149262500Y-83675000D01*
X148487500Y-83675000D01*
X148454419Y-83673375D01*
X148421657Y-83668515D01*
X148389529Y-83660467D01*
X148358344Y-83649309D01*
X148328404Y-83635148D01*
X148299995Y-83618121D01*
X148273392Y-83598391D01*
X148248851Y-83576149D01*
X148226609Y-83551608D01*
X148206879Y-83525005D01*
X148189852Y-83496596D01*
X148175691Y-83466656D01*
X148164533Y-83435471D01*
X148156485Y-83403343D01*
X148151625Y-83370581D01*
X148150000Y-83337500D01*
X148150000Y-82662500D01*
X148151625Y-82629419D01*
X148156485Y-82596657D01*
X148164533Y-82564529D01*
X148175691Y-82533344D01*
X148189852Y-82503404D01*
X148206879Y-82474995D01*
X148226609Y-82448392D01*
X148248851Y-82423851D01*
X148273392Y-82401609D01*
X148299995Y-82381879D01*
X148328404Y-82364852D01*
X148358344Y-82350691D01*
X148389529Y-82339533D01*
X148421657Y-82331485D01*
X148454419Y-82326625D01*
X148487500Y-82325000D01*
X149262500Y-82325000D01*
X149295581Y-82326625D01*
X149295581Y-82326625D01*
G37*
D20*
X148875000Y-83000000D03*
D19*
G36*
X151045581Y-82326625D02*
X151078343Y-82331485D01*
X151110471Y-82339533D01*
X151141656Y-82350691D01*
X151171596Y-82364852D01*
X151200005Y-82381879D01*
X151226608Y-82401609D01*
X151251149Y-82423851D01*
X151273391Y-82448392D01*
X151293121Y-82474995D01*
X151310148Y-82503404D01*
X151324309Y-82533344D01*
X151335467Y-82564529D01*
X151343515Y-82596657D01*
X151348375Y-82629419D01*
X151350000Y-82662500D01*
X151350000Y-83337500D01*
X151348375Y-83370581D01*
X151343515Y-83403343D01*
X151335467Y-83435471D01*
X151324309Y-83466656D01*
X151310148Y-83496596D01*
X151293121Y-83525005D01*
X151273391Y-83551608D01*
X151251149Y-83576149D01*
X151226608Y-83598391D01*
X151200005Y-83618121D01*
X151171596Y-83635148D01*
X151141656Y-83649309D01*
X151110471Y-83660467D01*
X151078343Y-83668515D01*
X151045581Y-83673375D01*
X151012500Y-83675000D01*
X150237500Y-83675000D01*
X150204419Y-83673375D01*
X150171657Y-83668515D01*
X150139529Y-83660467D01*
X150108344Y-83649309D01*
X150078404Y-83635148D01*
X150049995Y-83618121D01*
X150023392Y-83598391D01*
X149998851Y-83576149D01*
X149976609Y-83551608D01*
X149956879Y-83525005D01*
X149939852Y-83496596D01*
X149925691Y-83466656D01*
X149914533Y-83435471D01*
X149906485Y-83403343D01*
X149901625Y-83370581D01*
X149900000Y-83337500D01*
X149900000Y-82662500D01*
X149901625Y-82629419D01*
X149906485Y-82596657D01*
X149914533Y-82564529D01*
X149925691Y-82533344D01*
X149939852Y-82503404D01*
X149956879Y-82474995D01*
X149976609Y-82448392D01*
X149998851Y-82423851D01*
X150023392Y-82401609D01*
X150049995Y-82381879D01*
X150078404Y-82364852D01*
X150108344Y-82350691D01*
X150139529Y-82339533D01*
X150171657Y-82331485D01*
X150204419Y-82326625D01*
X150237500Y-82325000D01*
X151012500Y-82325000D01*
X151045581Y-82326625D01*
X151045581Y-82326625D01*
G37*
D20*
X150625000Y-83000000D03*
G04 #@! TD*
D19*
G04 #@! TO.C,C21*
G36*
X157780058Y-82326625D02*
X157812820Y-82331485D01*
X157844948Y-82339533D01*
X157876133Y-82350691D01*
X157906073Y-82364852D01*
X157934482Y-82381879D01*
X157961085Y-82401609D01*
X157985626Y-82423851D01*
X158007868Y-82448392D01*
X158027598Y-82474995D01*
X158044625Y-82503404D01*
X158058786Y-82533344D01*
X158069944Y-82564529D01*
X158077992Y-82596657D01*
X158082852Y-82629419D01*
X158084477Y-82662500D01*
X158084477Y-83337500D01*
X158082852Y-83370581D01*
X158077992Y-83403343D01*
X158069944Y-83435471D01*
X158058786Y-83466656D01*
X158044625Y-83496596D01*
X158027598Y-83525005D01*
X158007868Y-83551608D01*
X157985626Y-83576149D01*
X157961085Y-83598391D01*
X157934482Y-83618121D01*
X157906073Y-83635148D01*
X157876133Y-83649309D01*
X157844948Y-83660467D01*
X157812820Y-83668515D01*
X157780058Y-83673375D01*
X157746977Y-83675000D01*
X156971977Y-83675000D01*
X156938896Y-83673375D01*
X156906134Y-83668515D01*
X156874006Y-83660467D01*
X156842821Y-83649309D01*
X156812881Y-83635148D01*
X156784472Y-83618121D01*
X156757869Y-83598391D01*
X156733328Y-83576149D01*
X156711086Y-83551608D01*
X156691356Y-83525005D01*
X156674329Y-83496596D01*
X156660168Y-83466656D01*
X156649010Y-83435471D01*
X156640962Y-83403343D01*
X156636102Y-83370581D01*
X156634477Y-83337500D01*
X156634477Y-82662500D01*
X156636102Y-82629419D01*
X156640962Y-82596657D01*
X156649010Y-82564529D01*
X156660168Y-82533344D01*
X156674329Y-82503404D01*
X156691356Y-82474995D01*
X156711086Y-82448392D01*
X156733328Y-82423851D01*
X156757869Y-82401609D01*
X156784472Y-82381879D01*
X156812881Y-82364852D01*
X156842821Y-82350691D01*
X156874006Y-82339533D01*
X156906134Y-82331485D01*
X156938896Y-82326625D01*
X156971977Y-82325000D01*
X157746977Y-82325000D01*
X157780058Y-82326625D01*
X157780058Y-82326625D01*
G37*
D20*
X157359477Y-83000000D03*
D19*
G36*
X159530058Y-82326625D02*
X159562820Y-82331485D01*
X159594948Y-82339533D01*
X159626133Y-82350691D01*
X159656073Y-82364852D01*
X159684482Y-82381879D01*
X159711085Y-82401609D01*
X159735626Y-82423851D01*
X159757868Y-82448392D01*
X159777598Y-82474995D01*
X159794625Y-82503404D01*
X159808786Y-82533344D01*
X159819944Y-82564529D01*
X159827992Y-82596657D01*
X159832852Y-82629419D01*
X159834477Y-82662500D01*
X159834477Y-83337500D01*
X159832852Y-83370581D01*
X159827992Y-83403343D01*
X159819944Y-83435471D01*
X159808786Y-83466656D01*
X159794625Y-83496596D01*
X159777598Y-83525005D01*
X159757868Y-83551608D01*
X159735626Y-83576149D01*
X159711085Y-83598391D01*
X159684482Y-83618121D01*
X159656073Y-83635148D01*
X159626133Y-83649309D01*
X159594948Y-83660467D01*
X159562820Y-83668515D01*
X159530058Y-83673375D01*
X159496977Y-83675000D01*
X158721977Y-83675000D01*
X158688896Y-83673375D01*
X158656134Y-83668515D01*
X158624006Y-83660467D01*
X158592821Y-83649309D01*
X158562881Y-83635148D01*
X158534472Y-83618121D01*
X158507869Y-83598391D01*
X158483328Y-83576149D01*
X158461086Y-83551608D01*
X158441356Y-83525005D01*
X158424329Y-83496596D01*
X158410168Y-83466656D01*
X158399010Y-83435471D01*
X158390962Y-83403343D01*
X158386102Y-83370581D01*
X158384477Y-83337500D01*
X158384477Y-82662500D01*
X158386102Y-82629419D01*
X158390962Y-82596657D01*
X158399010Y-82564529D01*
X158410168Y-82533344D01*
X158424329Y-82503404D01*
X158441356Y-82474995D01*
X158461086Y-82448392D01*
X158483328Y-82423851D01*
X158507869Y-82401609D01*
X158534472Y-82381879D01*
X158562881Y-82364852D01*
X158592821Y-82350691D01*
X158624006Y-82339533D01*
X158656134Y-82331485D01*
X158688896Y-82326625D01*
X158721977Y-82325000D01*
X159496977Y-82325000D01*
X159530058Y-82326625D01*
X159530058Y-82326625D01*
G37*
D20*
X159109477Y-83000000D03*
G04 #@! TD*
D32*
G04 #@! TO.C,U1*
X121500000Y-120377078D03*
X122000000Y-120377078D03*
X122500000Y-120377078D03*
X123000000Y-120377078D03*
X123500000Y-120377078D03*
X124000000Y-120377078D03*
X124500000Y-120377078D03*
X125000000Y-120377078D03*
D33*
X125650000Y-119727078D03*
X125650000Y-119227078D03*
X125650000Y-118727078D03*
X125650000Y-118227078D03*
X125650000Y-117727078D03*
X125650000Y-117227078D03*
X125650000Y-116727078D03*
X125650000Y-116227078D03*
D32*
X125000000Y-115577078D03*
X124500000Y-115577078D03*
X124000000Y-115577078D03*
X123500000Y-115577078D03*
X123000000Y-115577078D03*
X122500000Y-115577078D03*
X122000000Y-115577078D03*
X121500000Y-115577078D03*
D33*
X120850000Y-116227078D03*
X120850000Y-116727078D03*
X120850000Y-117227078D03*
X120850000Y-117727078D03*
X120850000Y-118227078D03*
X120850000Y-118727078D03*
X120850000Y-119227078D03*
X120850000Y-119727078D03*
D34*
X123250000Y-117977078D03*
G04 #@! TD*
D15*
G04 #@! TO.C,D3*
X146650000Y-120550000D03*
X144150000Y-120550000D03*
X144150000Y-121950000D03*
X146650000Y-121950000D03*
G04 #@! TD*
G04 #@! TO.C,D4*
X154850000Y-121950000D03*
X152350000Y-121950000D03*
X152350000Y-120550000D03*
X154850000Y-120550000D03*
G04 #@! TD*
G04 #@! TO.C,D5*
X163050000Y-121950000D03*
X160550000Y-121950000D03*
X160550000Y-120550000D03*
X163050000Y-120550000D03*
G04 #@! TD*
G04 #@! TO.C,D6*
X171250000Y-120550000D03*
X168750000Y-120550000D03*
X168750000Y-121950000D03*
X171250000Y-121950000D03*
G04 #@! TD*
M02*
