M48
;DRILL file {KiCad (5.0.0)} date 03/23/21 02:02:18
;FORMAT={-:-/ absolute / inch / decimal}
FMAT,2
INCH,TZ
T1C0.0100
T2C0.0157
T3C0.0394
T4C0.1260
%
G90
G05
M72
T1
X6.347Y-3.5827
X6.378Y-3.5517
X6.378Y-3.6137
X6.409Y-3.5827
T2
X4.498Y-4.6949
X4.5571Y-4.4488
X4.5571Y-4.5276
X4.5571Y-4.6063
X4.5925Y-4.7972
X4.685Y-3.3465
X4.7835Y-3.8091
X4.8031Y-2.9134
X4.8031Y-4.6457
X4.8228Y-3.8484
X4.8524Y-4.5965
X4.8524Y-4.6457
X4.8524Y-4.6949
X4.8622Y-2.9134
X4.8622Y-3.8878
X4.8819Y-3.2087
X4.9016Y-4.6457
X4.9213Y-2.9134
X4.9449Y-3.378
X4.9705Y-3.6516
X4.9705Y-3.7303
X4.9705Y-4.806
X4.9803Y-2.9134
X5.1083Y-3.2874
X5.1083Y-3.9764
X5.294Y-3.1848
X5.2953Y-4.813
X5.3051Y-3.5433
X5.3445Y-3.7697
X5.4232Y-3.7697
X5.4823Y-3.6122
X5.4823Y-3.6811
X5.5217Y-3.6122
X5.5217Y-3.6811
X5.561Y-3.6122
X5.561Y-3.6811
X5.5906Y-3.2972
X5.6004Y-3.6122
X5.6004Y-3.6811
X5.6102Y-3.061
X5.6102Y-3.4449
X5.6201Y-4.813
X5.6693Y-3.8189
X5.7382Y-3.9764
X5.7874Y-2.7165
X5.7874Y-2.7854
X5.7874Y-2.8543
X5.9055Y-3.6417
X5.9173Y-2.8346
X5.935Y-4.813
X5.9449Y-3.8189
X6.1909Y-3.435
X6.2087Y-2.8346
X6.2205Y-3.6319
X6.2303Y-3.4252
X6.2598Y-4.813
X6.3091Y-3.7992
X6.3386Y-2.6772
X6.3681Y-3.9764
X6.378Y-3.2579
X6.3976Y-2.6772
X6.4567Y-2.6772
X6.4961Y-3.435
X6.5059Y-3.2579
X6.565Y-3.7795
X6.565Y-3.8583
X6.5748Y-2.6772
X6.5846Y-3.5531
X6.5846Y-4.813
X6.624Y-3.5039
X6.6437Y-3.5433
X6.7717Y-2.6772
X6.8504Y-4.9213
X6.9685Y-2.6772
X6.998Y-3.9764
X7.0472Y-4.9213
X7.3228Y-2.9528
X7.3228Y-3.1102
X7.3228Y-3.3071
X7.3228Y-3.4646
X7.3228Y-3.6614
X7.3228Y-3.8583
X7.3228Y-4.0551
X7.3228Y-4.252
X7.3228Y-4.252
X7.3228Y-4.252
X7.3228Y-4.4488
X7.3228Y-4.6457
T3
X6.1024Y-3.9764
X6.2008Y-3.9764
X6.2992Y-3.9764
X4.8425Y-3.9764
X4.9409Y-3.9764
X5.0394Y-3.9764
X5.4724Y-3.9764
X5.5709Y-3.9764
X5.6693Y-3.9764
X6.7323Y-3.9764
X6.8307Y-3.9764
X6.9291Y-3.9764
X4.5866Y-3.5138
X4.6573Y-3.5845
X4.728Y-3.6552
X4.7987Y-3.7259
X4.8695Y-3.7966
T4
X4.5669Y-2.7953
X7.2047Y-4.8031
X7.2047Y-2.7953
T3
X5.8661Y-2.9528G85X5.8661Y-2.9724
G05
X5.9646Y-2.9528G85X5.9646Y-2.9724
G05
X6.0728Y-2.7657G85X6.0531Y-2.7657
G05
X6.2598Y-2.9528G85X6.2598Y-2.9724
G05
T0
M30
