G04 #@! TF.GenerationSoftware,KiCad,Pcbnew,(5.0.0)*
G04 #@! TF.CreationDate,2021-03-23T02:02:14-07:00*
G04 #@! TF.ProjectId,TheVolumeMixerV2,546865566F6C756D654D697865725632,rev?*
G04 #@! TF.SameCoordinates,Original*
G04 #@! TF.FileFunction,Legend,Bot*
G04 #@! TF.FilePolarity,Positive*
%FSLAX46Y46*%
G04 Gerber Fmt 4.6, Leading zero omitted, Abs format (unit mm)*
G04 Created by KiCad (PCBNEW (5.0.0)) date 03/23/21 02:02:14*
%MOMM*%
%LPD*%
G01*
G04 APERTURE LIST*
%ADD10C,0.150000*%
G04 APERTURE END LIST*
D10*
X175142857Y-108452380D02*
X175142857Y-107452380D01*
X174761904Y-107452380D01*
X174666666Y-107500000D01*
X174619047Y-107547619D01*
X174571428Y-107642857D01*
X174571428Y-107785714D01*
X174619047Y-107880952D01*
X174666666Y-107928571D01*
X174761904Y-107976190D01*
X175142857Y-107976190D01*
X173952380Y-107452380D02*
X173761904Y-107452380D01*
X173666666Y-107500000D01*
X173571428Y-107595238D01*
X173523809Y-107785714D01*
X173523809Y-108119047D01*
X173571428Y-108309523D01*
X173666666Y-108404761D01*
X173761904Y-108452380D01*
X173952380Y-108452380D01*
X174047619Y-108404761D01*
X174142857Y-108309523D01*
X174190476Y-108119047D01*
X174190476Y-107785714D01*
X174142857Y-107595238D01*
X174047619Y-107500000D01*
X173952380Y-107452380D01*
X173238095Y-107452380D02*
X172666666Y-107452380D01*
X172952380Y-108452380D02*
X172952380Y-107452380D01*
X171904761Y-107785714D02*
X171904761Y-108452380D01*
X172142857Y-107404761D02*
X172380952Y-108119047D01*
X171761904Y-108119047D01*
X159142857Y-108452380D02*
X159142857Y-107452380D01*
X158761904Y-107452380D01*
X158666666Y-107500000D01*
X158619047Y-107547619D01*
X158571428Y-107642857D01*
X158571428Y-107785714D01*
X158619047Y-107880952D01*
X158666666Y-107928571D01*
X158761904Y-107976190D01*
X159142857Y-107976190D01*
X157952380Y-107452380D02*
X157761904Y-107452380D01*
X157666666Y-107500000D01*
X157571428Y-107595238D01*
X157523809Y-107785714D01*
X157523809Y-108119047D01*
X157571428Y-108309523D01*
X157666666Y-108404761D01*
X157761904Y-108452380D01*
X157952380Y-108452380D01*
X158047619Y-108404761D01*
X158142857Y-108309523D01*
X158190476Y-108119047D01*
X158190476Y-107785714D01*
X158142857Y-107595238D01*
X158047619Y-107500000D01*
X157952380Y-107452380D01*
X157238095Y-107452380D02*
X156666666Y-107452380D01*
X156952380Y-108452380D02*
X156952380Y-107452380D01*
X156428571Y-107452380D02*
X155809523Y-107452380D01*
X156142857Y-107833333D01*
X156000000Y-107833333D01*
X155904761Y-107880952D01*
X155857142Y-107928571D01*
X155809523Y-108023809D01*
X155809523Y-108261904D01*
X155857142Y-108357142D01*
X155904761Y-108404761D01*
X156000000Y-108452380D01*
X156285714Y-108452380D01*
X156380952Y-108404761D01*
X156428571Y-108357142D01*
X143142857Y-108452380D02*
X143142857Y-107452380D01*
X142761904Y-107452380D01*
X142666666Y-107500000D01*
X142619047Y-107547619D01*
X142571428Y-107642857D01*
X142571428Y-107785714D01*
X142619047Y-107880952D01*
X142666666Y-107928571D01*
X142761904Y-107976190D01*
X143142857Y-107976190D01*
X141952380Y-107452380D02*
X141761904Y-107452380D01*
X141666666Y-107500000D01*
X141571428Y-107595238D01*
X141523809Y-107785714D01*
X141523809Y-108119047D01*
X141571428Y-108309523D01*
X141666666Y-108404761D01*
X141761904Y-108452380D01*
X141952380Y-108452380D01*
X142047619Y-108404761D01*
X142142857Y-108309523D01*
X142190476Y-108119047D01*
X142190476Y-107785714D01*
X142142857Y-107595238D01*
X142047619Y-107500000D01*
X141952380Y-107452380D01*
X141238095Y-107452380D02*
X140666666Y-107452380D01*
X140952380Y-108452380D02*
X140952380Y-107452380D01*
X140380952Y-107547619D02*
X140333333Y-107500000D01*
X140238095Y-107452380D01*
X140000000Y-107452380D01*
X139904761Y-107500000D01*
X139857142Y-107547619D01*
X139809523Y-107642857D01*
X139809523Y-107738095D01*
X139857142Y-107880952D01*
X140428571Y-108452380D01*
X139809523Y-108452380D01*
X127142857Y-108452380D02*
X127142857Y-107452380D01*
X126761904Y-107452380D01*
X126666666Y-107500000D01*
X126619047Y-107547619D01*
X126571428Y-107642857D01*
X126571428Y-107785714D01*
X126619047Y-107880952D01*
X126666666Y-107928571D01*
X126761904Y-107976190D01*
X127142857Y-107976190D01*
X125952380Y-107452380D02*
X125761904Y-107452380D01*
X125666666Y-107500000D01*
X125571428Y-107595238D01*
X125523809Y-107785714D01*
X125523809Y-108119047D01*
X125571428Y-108309523D01*
X125666666Y-108404761D01*
X125761904Y-108452380D01*
X125952380Y-108452380D01*
X126047619Y-108404761D01*
X126142857Y-108309523D01*
X126190476Y-108119047D01*
X126190476Y-107785714D01*
X126142857Y-107595238D01*
X126047619Y-107500000D01*
X125952380Y-107452380D01*
X125238095Y-107452380D02*
X124666666Y-107452380D01*
X124952380Y-108452380D02*
X124952380Y-107452380D01*
X123809523Y-108452380D02*
X124380952Y-108452380D01*
X124095238Y-108452380D02*
X124095238Y-107452380D01*
X124190476Y-107595238D01*
X124285714Y-107690476D01*
X124380952Y-107738095D01*
M02*
